<svg width="81" height="80" viewBox="0 0 81 80" fill="none" xmlns="http://www.w3.org/2000/svg">
<g clip-path="url(#clip0)">
<path d="M24.818 33.0461L25.6231 39.702H71.0762L71.8812 33.0461H24.818Z" fill="#93EAF6"/>
<path d="M63.1105 13.9216L67.9241 11.6416C67.9508 11.7076 67.9789 11.7734 68.0099 11.8387C68.8621 13.6378 71.0111 14.4053 72.81 13.5533C74.6089 12.7012 75.3766 10.552 74.5246 8.75311C74.0311 7.7114 73.1027 7.01655 72.0592 6.78077C72.5377 5.82405 72.5883 4.66546 72.095 3.62374C71.2428 1.82468 69.0938 1.05702 67.2949 1.90905C65.496 2.76124 64.7283 4.9103 65.5805 6.70921C65.6114 6.77452 65.6446 6.83796 65.6788 6.90046L60.4832 9.36139" fill="#F9EED7"/>
<path d="M37.7954 7.26141C37.1151 7.49423 36.4408 7.76673 35.7754 8.08188C28.8573 11.3586 24.8109 18.2449 24.8179 25.4234H37.28L40.0653 8.1972C39.3292 7.83673 38.5704 7.52516 37.7954 7.26141Z" fill="#D04E42"/>
<path d="M39.7881 39.702H24.8941H24.818L29.5034 78.4377H66.3908L71.0762 39.702H39.7881Z" fill="#279FC9"/>
<path d="M58.8299 48.5403C58.7285 48.5403 58.6252 48.5307 58.5252 48.5106C58.4252 48.4903 58.3267 48.4606 58.2331 48.4215C58.1378 48.3825 58.0472 48.334 57.9628 48.2778C57.8769 48.22 57.7972 48.1543 57.7253 48.0825C57.6535 48.0106 57.5877 47.9309 57.5316 47.845C57.4753 47.7606 57.4269 47.67 57.3878 47.5762C57.3488 47.4809 57.3191 47.3825 57.2988 47.284C57.2785 47.1825 57.2675 47.0792 57.2675 46.9778C57.2675 46.8762 57.2785 46.7729 57.2988 46.6731C57.3191 46.5729 57.3488 46.4745 57.3878 46.3809C57.4269 46.2856 57.4753 46.195 57.5316 46.1106C57.5877 46.0247 57.6535 45.945 57.7253 45.8731C57.7972 45.8012 57.8769 45.7356 57.9628 45.6794C58.0472 45.6233 58.1378 45.5747 58.2331 45.5356C58.3269 45.4965 58.4253 45.4669 58.5252 45.4465C58.7267 45.4059 58.9345 45.4059 59.1361 45.4465C59.2345 45.467 59.3331 45.4965 59.4283 45.5356C59.5222 45.5747 59.6127 45.6231 59.697 45.6794C59.7831 45.7356 59.8628 45.8012 59.9347 45.8731C60.2253 46.1637 60.3925 46.5667 60.3925 46.9778C60.3925 47.0792 60.3831 47.1825 60.363 47.284C60.3427 47.3825 60.313 47.4809 60.2739 47.5762C60.2349 47.67 60.1864 47.7606 60.1302 47.845C60.0724 47.9309 60.0067 48.0104 59.9349 48.0825C59.863 48.1543 59.7833 48.22 59.6972 48.2778C59.6128 48.334 59.5224 48.3825 59.4285 48.4215C59.3333 48.4606 59.2347 48.4903 59.1363 48.5106C59.0347 48.5307 58.9316 48.5403 58.8299 48.5403Z" fill="black"/>
<path d="M75.5466 25.4239H22.6083V33.0465H75.5466V25.4239Z" fill="#F2995E"/>
<path d="M54.8184 5.35578C53.2345 4.74469 51.5137 4.40875 49.714 4.40875C41.8801 4.40875 35.5295 10.7595 35.5295 18.5933C35.5295 21.0695 36.1647 23.3972 37.28 25.4234H47.4884C46.3731 23.3973 45.738 21.0697 45.738 18.5933C45.738 12.5589 49.5065 7.40516 54.8184 5.35578Z" fill="white"/>
<path d="M54.8184 5.35577C49.5066 7.40531 45.7381 12.5589 45.7381 18.5933C45.7381 21.0695 46.3733 23.3972 47.4886 25.4234H62.1483C63.2636 23.3973 63.8988 21.0697 63.8988 18.5933C63.8988 12.5589 60.13 7.40515 54.8184 5.35577Z" fill="#FF5F5F"/>
<path d="M75.547 23.8609H64.5554C65.1517 22.1772 65.4612 20.3917 65.4612 18.5931C65.4612 17.2715 65.2976 15.9876 64.9895 14.7603L67.334 13.6498C67.9136 14.3315 68.664 14.8525 69.5292 15.1615C70.8293 15.6261 72.232 15.5559 73.4787 14.9651C74.7259 14.3745 75.6686 13.3334 76.1326 12.0336C76.5968 10.7339 76.527 9.33123 75.9364 8.0842C75.4967 7.15592 74.8073 6.39826 73.9564 5.8817C74.0961 4.89623 73.9465 3.8831 73.5068 2.95482C72.2871 0.380136 69.2004 -0.722208 66.6253 0.497011C64.4717 1.51717 63.3479 3.84389 63.7518 6.0842L60.8423 7.46248C57.9911 4.61185 54.0548 2.84639 49.7139 2.84639C45.964 2.84639 42.5161 4.16389 39.8086 6.36045C34.334 4.00451 28.1789 4.10451 22.7623 6.67014C19.1459 8.3831 16.1251 11.0792 14.0272 14.467C12.2611 17.3192 11.2165 20.539 10.9689 23.8612H5.45309C4.59013 23.8612 3.89059 24.5609 3.89059 25.4237V33.0464C3.89059 33.9092 4.59013 34.6089 5.45309 34.6089H7.73372L13.0579 78.6253C13.1529 79.41 13.8187 80.0001 14.6092 80.0001H66.3907C67.1812 80.0001 67.847 79.41 67.942 78.6253L73.2662 34.6089H75.5468C76.4096 34.6089 77.1093 33.9092 77.1093 33.0464V25.4234C77.1095 24.5606 76.4098 23.8609 75.547 23.8609ZM66.3475 8.31279C66.7367 8.12842 67.0328 7.79139 67.1651 7.38154C67.2978 6.97154 67.2551 6.52514 67.0475 6.14764C67.0284 6.11295 67.0098 6.07779 66.9921 6.0406C66.5103 5.02326 66.9459 3.80342 67.9632 3.32154C68.9811 2.83967 70.2006 3.27529 70.6826 4.29264C70.9526 4.86295 70.9451 5.51498 70.6615 6.0817C70.4467 6.51107 70.4412 7.0156 70.6467 7.44951C70.8521 7.88342 71.2459 8.19889 71.7143 8.30482C72.3325 8.44467 72.8418 8.85185 73.112 9.42217C73.3454 9.91498 73.3729 10.4692 73.1895 10.9828C73.0061 11.4964 72.6336 11.9078 72.1407 12.1412C71.6482 12.3745 71.094 12.4026 70.5801 12.2187C70.0665 12.0353 69.6551 11.6628 69.4212 11.1692C69.4036 11.1319 69.3876 11.094 69.3723 11.0561C69.2112 10.6572 68.8926 10.3425 68.4918 10.1861C68.0909 10.0297 67.6434 10.0453 67.2548 10.2295L63.9226 11.8078C63.6148 11.1656 63.2647 10.5475 62.8757 9.95685L66.3475 8.31279ZM62.3361 18.5933C62.3361 20.4142 61.9407 22.2178 61.1868 23.8609H38.2412C37.4872 22.218 37.092 20.4145 37.092 18.5933C37.092 11.6334 42.7543 5.97123 49.714 5.97123C56.6737 5.97123 62.3361 11.6334 62.3361 18.5933ZM24.1004 9.49404C28.3184 7.49639 33.0648 7.25951 37.409 8.77748C35.2557 11.4712 33.967 14.8847 33.967 18.5934C33.967 20.3919 34.2765 22.1772 34.8728 23.8611H14.1051C14.6539 17.6984 18.4534 12.1687 24.1004 9.49404ZM69.6912 38.1394H24.894C24.0311 38.1394 23.3315 38.8389 23.3315 39.7019C23.3315 40.5648 24.0311 41.2644 24.894 41.2644H69.3132L65.0059 76.875H15.994L12.5668 48.5406H52.3297C53.1926 48.5406 53.8922 47.8409 53.8922 46.9781C53.8922 46.1153 53.1926 45.4156 52.3297 45.4156H12.1889L10.8817 34.6089H70.1186L69.6912 38.1394ZM73.9845 31.4837H7.01559V26.9862H73.9845V31.4837Z" fill="black"/>
<path d="M36.0408 60.2281H30.3655C30.3691 60.1668 30.3714 60.1053 30.3714 60.0432C30.3714 58.3311 28.9834 56.9429 27.2711 56.9429C25.5589 56.9429 24.1708 58.3309 24.1708 60.0432C24.1708 61.0347 24.6367 61.9167 25.3609 62.4843C24.6367 63.0518 24.1708 63.9339 24.1708 64.9253C24.1708 66.6375 25.5587 68.0256 27.2711 68.0256C28.9833 68.0256 30.3714 66.6376 30.3714 64.9253C30.3714 64.8632 30.3691 64.8015 30.3655 64.7404H36.0408" fill="#F9EED7"/>
<path d="M42.5142 62.4842C42.5142 57.8561 45.5075 53.9295 49.6629 52.528C48.6078 52.172 47.4789 51.9763 46.3036 51.9763C40.5 51.9763 35.7954 56.6808 35.7954 62.4844C35.7954 68.288 40.5 72.9925 46.3036 72.9925C47.4789 72.9925 48.6078 72.7967 49.6629 72.4408C45.5076 71.0389 42.5142 67.1123 42.5142 62.4842Z" fill="white"/>
<path d="M56.8115 62.4842C56.8115 57.8561 53.8182 53.9295 49.6628 52.528C45.5076 53.9297 42.514 57.8561 42.514 62.4842C42.514 67.1123 45.5073 71.0387 49.6628 72.4405C53.8182 71.0389 56.8115 67.1123 56.8115 62.4842Z" fill="#F2995E"/>
<path d="M46.3034 50.4138C40.9816 50.4138 36.4531 53.8755 34.8517 58.6656L31.7264 58.6658C31.1373 56.7652 29.363 55.3806 27.2712 55.3806C26.0258 55.3806 24.8548 55.8655 23.9741 56.7463C23.0933 57.627 22.6083 58.798 22.6084 60.0434C22.6084 60.9214 22.8501 61.7609 23.2959 62.4845C22.8501 63.208 22.6084 64.0473 22.6084 64.9255C22.6084 66.1709 23.0934 67.3419 23.9741 68.2227C24.8547 69.1033 26.0256 69.5883 27.2712 69.5883C29.363 69.5883 31.1373 68.2038 31.7264 66.3031H34.8517C36.4531 71.0931 40.9817 74.5552 46.3034 74.5552C52.9594 74.5552 58.3741 69.1403 58.3741 62.4845C58.3741 55.8284 52.9594 50.4138 46.3034 50.4138ZM30.3655 63.1778C29.9351 63.1778 29.5239 63.3553 29.2287 63.6683C28.9334 63.9814 28.7805 64.4022 28.8056 64.8317C28.8075 64.8627 28.8089 64.8939 28.8089 64.9253C28.8089 65.7733 28.1191 66.4631 27.2711 66.4631C26.8603 66.4631 26.4741 66.3033 26.1836 66.0127C25.8931 65.7223 25.7333 65.3361 25.7333 64.9253C25.7333 64.4502 25.9487 64.0088 26.3247 63.7142C26.7026 63.4181 26.9234 62.9647 26.9234 62.4845C26.9234 62.0044 26.7026 61.5509 26.3248 61.2545C25.9489 60.96 25.7333 60.5184 25.7333 60.0433C25.7333 59.6325 25.8933 59.2463 26.1836 58.9559C26.4741 58.6655 26.8603 58.5055 27.2711 58.5055C28.1191 58.5055 28.8089 59.1953 28.8089 60.0433C28.8089 60.0747 28.8075 60.1059 28.8056 60.137C28.7805 60.5666 28.9336 60.9873 29.2287 61.3003C29.5241 61.6133 29.9351 61.7908 30.3655 61.7908L34.2523 61.7906C34.2392 62.0202 34.2327 62.2514 34.2327 62.4842C34.2327 62.717 34.2392 62.9483 34.2523 63.1778H30.3655ZM46.3034 71.4298C41.3709 71.4298 37.3578 67.4169 37.3578 62.4842C37.3578 57.5519 41.3708 53.5388 46.3034 53.5388C51.2361 53.5388 55.2491 57.5517 55.2491 62.4842C55.2491 67.4167 51.2361 71.4298 46.3034 71.4298Z" fill="black"/>
</g>
<defs>
<clipPath id="clip0">
<rect width="80" height="80" fill="white" transform="translate(0.5)"/>
</clipPath>
</defs>
</svg>
