<svg width="357" height="356" viewBox="0 0 357 356" fill="none" xmlns="http://www.w3.org/2000/svg">
<g clip-path="url(#clip0)">
<path d="M265.227 204.135C264.907 203.815 264.551 203.523 264.167 203.273C263.79 203.022 263.386 202.807 262.967 202.633C262.543 202.459 262.103 202.328 261.664 202.237C260.764 202.056 259.837 202.056 258.937 202.237C258.492 202.327 258.052 202.459 257.634 202.633C257.209 202.807 256.804 203.023 256.428 203.273C256.044 203.523 255.689 203.815 255.368 204.135C255.047 204.455 254.754 204.809 254.503 205.192C254.252 205.567 254.036 205.97 253.862 206.395C253.688 206.811 253.555 207.249 253.464 207.695C253.374 208.139 253.325 208.599 253.325 209.051C253.325 209.502 253.374 209.961 253.464 210.413C253.555 210.851 253.688 211.29 253.862 211.714C254.036 212.131 254.252 212.534 254.503 212.91C254.754 213.292 255.047 213.647 255.368 213.966C255.689 214.286 256.044 214.578 256.428 214.836C256.804 215.086 257.209 215.301 257.634 215.475C258.052 215.649 258.491 215.781 258.937 215.872C259.383 215.961 259.844 216.004 260.297 216.004C260.751 216.004 261.211 215.961 261.664 215.872C262.104 215.781 262.543 215.649 262.968 215.475C263.387 215.301 263.791 215.086 264.167 214.836C264.552 214.578 264.907 214.286 265.228 213.966C265.549 213.646 265.842 213.292 266.1 212.91C266.351 212.534 266.567 212.131 266.741 211.714C266.915 211.29 267.048 210.851 267.138 210.413C267.228 209.961 267.27 209.502 267.27 209.051C267.27 207.221 266.524 205.428 265.227 204.135Z" fill="black"/>
<path d="M334.897 106.181H285.848C288.508 98.6884 289.89 90.7431 289.89 82.7394C289.89 76.8584 289.16 71.145 287.785 65.6833L298.247 60.7418C300.833 63.7754 304.182 66.0936 308.043 67.4689C313.845 69.5361 320.104 69.2239 325.668 66.5949C331.233 63.9666 335.44 59.3337 337.511 53.5494C339.582 47.7658 339.271 41.524 336.635 35.9747C334.673 31.8439 331.597 28.4723 327.799 26.1736C328.423 21.7883 327.755 17.2799 325.793 13.149C320.35 1.69164 306.576 -3.21379 295.084 2.21174C285.474 6.75143 280.459 17.1053 282.262 27.0747L269.278 33.2081C256.554 20.5228 238.989 12.6665 219.617 12.6665C202.883 12.6665 187.497 18.5293 175.415 28.304C150.985 17.8201 123.517 18.2651 99.3458 29.6821C83.2076 37.3049 69.7273 49.3025 60.3651 64.3782C52.484 77.0705 47.8227 91.3988 46.7176 106.183H22.1034C18.2524 106.183 15.1307 109.296 15.1307 113.136V147.056C15.1307 150.896 18.2524 154.01 22.1034 154.01H32.2807L56.04 349.883C56.464 353.374 59.435 356.001 62.9625 356.001H294.038C297.565 356.001 300.536 353.374 300.96 349.883L324.719 154.01H334.897C338.747 154.01 341.869 150.896 341.869 147.056V113.134C341.87 109.295 338.748 106.181 334.897 106.181ZM293.845 36.9913C295.581 36.1708 296.903 34.671 297.493 32.8472C298.085 31.0227 297.895 29.0362 296.968 27.3563C296.883 27.202 296.8 27.0455 296.721 26.88C294.571 22.3529 296.515 16.9246 301.055 14.7802C305.597 12.6359 311.039 14.5744 313.19 19.1016C314.395 21.6395 314.362 24.541 313.096 27.0629C312.137 28.9736 312.113 31.2188 313.03 33.1497C313.947 35.0805 315.704 36.4844 317.794 36.9558C320.553 37.5781 322.826 39.3901 324.031 41.928C325.073 44.121 325.196 46.5873 324.377 48.8728C323.559 51.1583 321.896 52.989 319.697 54.0278C317.499 55.0659 315.026 55.1911 312.733 54.3727C310.441 53.5564 308.605 51.8988 307.561 49.7023C307.482 49.5361 307.411 49.3678 307.343 49.1989C306.624 47.4237 305.202 46.0234 303.414 45.3274C301.625 44.6314 299.628 44.7009 297.894 45.5207L283.024 52.5447C281.65 49.687 280.087 46.9363 278.352 44.308L293.845 36.9913ZM219.618 26.5713C250.676 26.5713 275.944 51.7687 275.944 82.7394C275.944 90.8425 274.18 98.8685 270.815 106.18H168.42C165.055 98.8692 163.292 90.8439 163.292 82.7394C163.292 51.7687 188.56 26.5713 219.618 26.5713ZM105.317 42.2485C124.14 33.359 145.321 32.3049 164.707 39.0598C155.098 51.047 149.347 66.2368 149.347 82.7407C149.347 90.7438 150.728 98.6884 153.389 106.182H60.7131C63.1619 78.758 80.1173 54.1509 105.317 42.2485ZM308.766 169.72H108.859C105.008 169.72 101.886 172.833 101.886 176.673C101.886 180.514 105.008 183.626 108.859 183.626H307.079L287.858 342.094H69.1423L53.8485 216.006H231.29C235.141 216.006 238.263 212.892 238.263 209.053C238.263 205.213 235.141 202.099 231.29 202.099H52.1611L46.3278 154.01H310.672L308.766 169.72ZM327.925 140.103H29.0761V120.089H327.925V140.103Z" fill="black"/>
<path d="M204.398 224.341C180.649 224.341 160.441 239.746 153.295 261.062L139.348 261.063C136.719 252.605 128.801 246.444 119.467 246.444C113.909 246.444 108.684 248.601 104.753 252.521C100.823 256.44 98.6582 261.651 98.6589 267.193C98.6589 271.1 99.7376 274.836 101.727 278.056C99.7376 281.275 98.6589 285.011 98.6589 288.918C98.6589 294.461 100.823 299.671 104.753 303.591C108.683 307.51 113.908 309.668 119.467 309.668C128.801 309.668 136.719 303.507 139.348 295.049H153.295C160.441 316.364 180.65 331.77 204.398 331.77C234.1 331.77 258.263 307.674 258.263 278.056C258.263 248.437 234.1 224.341 204.398 224.341ZM150.621 281.141H133.275C131.355 281.141 129.52 281.931 128.203 283.324C126.885 284.717 126.202 286.59 126.315 288.501C126.323 288.639 126.329 288.778 126.329 288.918C126.329 292.691 123.251 295.761 119.467 295.761C117.634 295.761 115.91 295.05 114.614 293.756C113.318 292.464 112.604 290.746 112.604 288.918C112.604 286.803 113.566 284.839 115.243 283.528C116.93 282.211 117.915 280.193 117.915 278.056C117.915 275.919 116.93 273.902 115.244 272.583C113.566 271.272 112.604 269.307 112.604 267.193C112.604 265.365 113.318 263.646 114.614 262.354C115.91 261.061 117.634 260.349 119.467 260.349C123.251 260.349 126.329 263.419 126.329 267.193C126.329 267.332 126.323 267.471 126.315 267.61C126.202 269.521 126.886 271.394 128.203 272.786C129.521 274.179 131.355 274.969 133.275 274.969L150.621 274.968C150.562 275.99 150.533 277.019 150.533 278.055C150.533 279.091 150.562 280.12 150.621 281.141ZM204.398 317.863C182.386 317.863 164.478 300.005 164.478 278.055C164.478 256.105 182.386 238.247 204.398 238.247C226.409 238.247 244.318 256.105 244.318 278.055C244.318 300.004 226.41 317.863 204.398 317.863Z" fill="black"/>
</g>
<defs>
<clipPath id="clip0">
<rect width="357" height="356" fill="white"/>
</clipPath>
</defs>
</svg>
