<svg width="30" height="30" viewBox="0 0 100 100" fill="none" xmlns="http://www.w3.org/2000/svg">
<g clip-path="url(#clip0)">
<path d="M74.2935 57.3411C74.2036 57.2512 74.104 57.1692 73.9964 57.0989C73.8909 57.0286 73.7778 56.968 73.6604 56.9192C73.5415 56.8704 73.4183 56.8334 73.2952 56.8079C73.0433 56.7571 72.7835 56.7571 72.5315 56.8079C72.4067 56.8333 72.2837 56.8704 72.1665 56.9192C72.0474 56.968 71.9341 57.0288 71.8286 57.0989C71.7212 57.1692 71.6216 57.2512 71.5317 57.3411C71.4419 57.4309 71.3597 57.5305 71.2896 57.6379C71.2192 57.7434 71.1587 57.8567 71.1099 57.9758C71.061 58.0928 71.0239 58.2158 70.9985 58.341C70.9731 58.4658 70.9595 58.5949 70.9595 58.7219C70.9595 58.8487 70.9731 58.9778 70.9985 59.1047C71.0239 59.2277 71.061 59.3508 71.1099 59.4699C71.1587 59.5871 71.2192 59.7004 71.2896 59.8059C71.3597 59.9133 71.4419 60.0129 71.5317 60.1027C71.6216 60.1926 71.7212 60.2746 71.8286 60.3469C71.9341 60.4172 72.0474 60.4777 72.1665 60.5266C72.2835 60.5754 72.4065 60.6125 72.5315 60.6379C72.6565 60.6631 72.7856 60.675 72.9124 60.675C73.0395 60.675 73.1685 60.6631 73.2954 60.6379C73.4185 60.6125 73.5417 60.5754 73.6606 60.5266C73.778 60.4777 73.8911 60.4172 73.9966 60.3469C74.1042 60.2746 74.2038 60.1926 74.2936 60.1027C74.3835 60.0127 74.4655 59.9133 74.5378 59.8059C74.6081 59.7004 74.6687 59.5871 74.7175 59.4699C74.7663 59.3508 74.8034 59.2277 74.8288 59.1047C74.854 58.9778 74.8657 58.8487 74.8657 58.7219C74.8657 58.208 74.6567 57.7043 74.2935 57.3411Z" fill="black"/>
<path d="M93.8088 29.8293H80.0693C80.8147 27.7246 81.2016 25.4928 81.2016 23.2445C81.2016 21.5926 80.9971 19.9877 80.6119 18.4535L83.5426 17.0654C84.267 17.9176 85.2051 18.5688 86.2865 18.9551C87.9117 19.5357 89.665 19.448 91.2234 18.7096C92.7824 17.9713 93.9608 16.6699 94.5408 15.0451C95.1211 13.4205 95.0338 11.6672 94.2955 10.1084C93.7459 8.94804 92.8842 8.00096 91.8205 7.35526C91.9951 6.12342 91.8082 4.85702 91.2586 3.69666C89.734 0.478298 85.8756 -0.899633 82.6566 0.624392C79.9647 1.89959 78.56 4.80799 79.0649 7.60839L75.4279 9.33124C71.8639 5.76795 66.9436 3.56111 61.5174 3.56111C56.8301 3.56111 52.5201 5.20799 49.1357 7.9537C42.2926 5.00877 34.5986 5.13377 27.8279 8.34081C23.3074 10.482 19.5314 13.8521 16.909 18.0869C14.7014 21.6522 13.3957 25.677 13.0861 29.8297H6.19141C5.1127 29.8297 4.23828 30.7043 4.23828 31.7828V41.3112C4.23828 42.3897 5.1127 43.2643 6.19141 43.2643H9.04219L15.6975 98.2849C15.8162 99.2657 16.6484 100.003 17.6365 100.003H82.3635C83.3516 100.003 84.1838 99.2657 84.3026 98.2849L90.9578 43.2643H93.8086C94.8871 43.2643 95.7617 42.3897 95.7617 41.3112V31.7824C95.7619 30.7039 94.8873 29.8293 93.8088 29.8293ZM82.3094 10.3939C82.7959 10.1635 83.166 9.74218 83.3315 9.22987C83.4973 8.71737 83.444 8.15936 83.1844 7.68749C83.1606 7.64413 83.1373 7.60018 83.1152 7.5537C82.5129 6.28202 83.0574 4.75721 84.3291 4.15487C85.6014 3.55252 87.1258 4.09705 87.7283 5.36873C88.0658 6.08163 88.0565 6.89667 87.702 7.60507C87.4334 8.14178 87.4266 8.77245 87.6834 9.31483C87.9402 9.85722 88.4324 10.2516 89.018 10.384C89.7906 10.5588 90.4274 11.0678 90.7651 11.7807C91.0568 12.3967 91.0912 13.0894 90.8619 13.7314C90.6326 14.3734 90.167 14.8877 89.551 15.1795C88.9354 15.4711 88.2426 15.5062 87.6002 15.2764C86.9582 15.0471 86.444 14.5814 86.1516 13.9644C86.1295 13.9178 86.1096 13.8705 86.0904 13.823C85.8891 13.3244 85.4908 12.931 84.9899 12.7355C84.4887 12.54 83.9293 12.5596 83.4436 12.7898L79.2783 14.7629C78.8936 13.9602 78.4559 13.1875 77.9697 12.4492L82.3094 10.3939ZM61.5176 7.46698C70.2174 7.46698 77.2951 14.5449 77.2951 23.2445C77.2951 25.5207 76.801 27.7752 75.8586 29.8291H47.1766C46.234 27.7754 45.74 25.5211 45.74 23.2445C45.74 14.5449 52.818 7.46698 61.5176 7.46698ZM29.5006 11.8707C34.7731 9.37362 40.7061 9.07753 46.1363 10.975C43.4447 14.3422 41.8338 18.609 41.8338 23.2449C41.8338 25.493 42.2207 27.7246 42.966 29.8295H17.0064C17.6924 22.1262 22.4418 15.2141 29.5006 11.8707ZM86.4891 47.6774H30.4926C29.4139 47.6774 28.5395 48.5518 28.5395 49.6305C28.5395 50.7092 29.4139 51.5836 30.4926 51.5836H86.0166L80.6324 96.097H19.3676L15.0836 60.679H64.7871C65.8658 60.679 66.7402 59.8044 66.7402 58.7258C66.7402 57.6473 65.8658 56.7727 64.7871 56.7727H14.6109L12.977 43.2643H87.0231L86.4891 47.6774ZM91.8557 39.3578H8.14453V33.736H91.8557V39.3578Z" fill="black"/>
<path d="M57.2542 63.0173C50.6019 63.0173 44.9414 67.3445 42.9396 73.3322L39.033 73.3324C38.2966 70.9566 36.0787 69.2259 33.464 69.2259C31.9072 69.2259 30.4435 69.832 29.3425 70.933C28.2416 72.0339 27.6353 73.4976 27.6355 75.0544C27.6355 76.1519 27.9376 77.2013 28.4949 78.1058C27.9376 79.0101 27.6355 80.0593 27.6355 81.157C27.6355 82.7138 28.2417 84.1775 29.3425 85.2785C30.4433 86.3792 31.907 86.9855 33.464 86.9855C36.0787 86.9855 38.2966 85.2548 39.033 82.879H42.9396C44.9414 88.8665 50.6021 93.1941 57.2542 93.1941C65.5742 93.1941 72.3425 86.4255 72.3425 78.1058C72.3425 69.7857 65.5742 63.0173 57.2542 63.0173ZM42.1906 78.9724H37.332C36.7941 78.9724 36.28 79.1943 35.9111 79.5855C35.5419 79.9769 35.3507 80.5029 35.3822 81.0398C35.3845 81.0785 35.3863 81.1175 35.3863 81.1568C35.3863 82.2167 34.524 83.079 33.464 83.079C32.9505 83.079 32.4677 82.8792 32.1046 82.516C31.7416 82.1531 31.5417 81.6703 31.5417 81.1568C31.5417 80.5628 31.8111 80.0111 32.281 79.6429C32.7535 79.2728 33.0294 78.706 33.0294 78.1058C33.0294 77.5056 32.7535 76.9388 32.2812 76.5683C31.8113 76.2001 31.5417 75.6482 31.5417 75.0542C31.5417 74.5408 31.7417 74.058 32.1046 73.6951C32.4677 73.332 32.9505 73.132 33.464 73.132C34.524 73.132 35.3863 73.9943 35.3863 75.0542C35.3863 75.0935 35.3845 75.1326 35.3822 75.1714C35.3507 75.7083 35.5421 76.2343 35.9111 76.6255C36.2802 77.0167 36.7941 77.2386 37.332 77.2386L42.1906 77.2384C42.1742 77.5253 42.166 77.8144 42.166 78.1054C42.166 78.3964 42.1742 78.6855 42.1906 78.9724ZM57.2542 89.2874C51.0884 89.2874 46.0722 84.2712 46.0722 78.1054C46.0722 71.9398 51.0884 66.9236 57.2542 66.9236C63.4199 66.9236 68.4363 71.9398 68.4363 78.1054C68.4363 84.271 63.4201 89.2874 57.2542 89.2874Z" fill="black"/>
</g>
<defs>
<clipPath id="clip0">
<rect width="100" height="100" fill="white"/>
</clipPath>
</defs>
</svg>
