<svg width="356" height="356" viewBox="0 0 356 356" fill="none" xmlns="http://www.w3.org/2000/svg">
<path d="M256.375 252.427C256.292 251.982 256.153 251.543 255.979 251.126C255.805 250.702 255.589 250.299 255.339 249.923C255.089 249.541 254.797 249.186 254.477 248.867C252.864 247.253 250.465 246.509 248.205 246.968C247.76 247.059 247.322 247.191 246.905 247.365C246.481 247.538 246.078 247.754 245.702 248.004C245.32 248.255 244.965 248.547 244.645 248.867C244.325 249.186 244.033 249.541 243.783 249.923C243.533 250.299 243.317 250.702 243.143 251.126C242.969 251.543 242.837 251.982 242.747 252.427C242.657 252.872 242.608 253.33 242.608 253.782C242.608 254.234 242.657 254.693 242.747 255.145C242.837 255.583 242.969 256.021 243.143 256.445C243.317 256.863 243.533 257.266 243.783 257.641C244.033 258.024 244.325 258.378 244.645 258.698C244.965 259.018 245.32 259.31 245.702 259.567C246.078 259.818 246.481 260.033 246.905 260.207C247.322 260.381 247.76 260.513 248.205 260.603C248.65 260.694 249.109 260.736 249.561 260.736C251.39 260.736 253.184 259.999 254.477 258.698C254.797 258.378 255.089 258.024 255.339 257.641C255.589 257.266 255.805 256.863 255.979 256.445C256.153 256.021 256.292 255.583 256.375 255.145C256.466 254.693 256.514 254.234 256.514 253.782C256.514 253.33 256.466 252.872 256.375 252.427Z" fill="black"/>
<path d="M291.816 153.53C290.497 152.051 288.608 151.205 286.626 151.205H278.509V63.718C278.509 59.8778 275.396 56.7648 271.555 56.7648H247.323V30.0696C247.323 26.2294 244.21 23.1164 240.37 23.1164H209.185C205.345 23.1164 202.232 26.2294 202.232 30.0696V75.5877H184.953V37.5644C184.953 33.7242 181.84 30.6113 178 30.6113H153.768V6.95315C153.768 3.11293 150.655 0 146.815 0H115.629C111.789 0 108.676 3.11293 108.676 6.95315V67.4623H84.4433C80.6031 67.4623 77.4902 70.5752 77.4902 74.4154V151.205H69.3738C67.3914 151.205 65.503 152.051 64.1839 153.53C62.8649 155.01 62.2398 156.983 62.4665 158.952L84.4267 349.842C84.8306 353.351 87.8017 356 91.3346 356H264.667C268.2 356 271.171 353.351 271.574 349.842L293.534 158.952C293.76 156.983 293.135 155.01 291.816 153.53ZM247.324 70.6711H264.603V151.205H247.324V70.6711ZM216.138 37.0228H233.417V152.891C232.201 153.94 231.345 155.409 231.085 157.098L226.012 189.968H216.138V37.0228ZM184.953 89.494H202.233V189.967H184.953V89.494ZM153.768 44.5176H171.047V189.967H153.768V44.5176ZM122.582 13.9063H139.861V189.967H129.987L124.915 157.097C124.654 155.409 123.799 153.939 122.582 152.891V13.9063ZM91.3972 81.3686H108.676V151.205H91.3972V81.3686ZM122.823 342.094L125.744 316.703H230.256L233.176 342.094H122.823ZM258.467 342.094H247.174L243.363 308.956C242.959 305.446 239.988 302.797 236.455 302.797H119.544C116.011 302.797 113.04 305.446 112.636 308.956L108.825 342.094H97.5327L88.1744 260.738H221.706C225.546 260.738 228.659 257.625 228.659 253.785C228.659 249.945 225.546 246.832 221.706 246.832H86.5752L79.9787 189.485H91.1796L96.2512 222.356C96.7741 225.747 99.6923 228.248 103.123 228.248H252.877C256.307 228.248 259.225 225.746 259.748 222.356L264.82 189.485H276.021L258.467 342.094ZM277.621 175.578H258.858C255.427 175.578 252.509 178.081 251.986 181.471L246.914 214.342H109.085L104.014 181.471C103.49 178.08 100.573 175.578 97.1419 175.578H78.3788L77.1752 165.112H112.078L117.151 197.981C117.446 199.895 118.506 201.527 119.991 202.585C120.005 202.595 120.018 202.604 120.032 202.614C120.06 202.634 120.089 202.653 120.117 202.673C120.139 202.688 120.161 202.702 120.184 202.718C120.203 202.73 120.222 202.743 120.241 202.755C120.271 202.775 120.301 202.794 120.331 202.812C120.342 202.819 120.353 202.826 120.364 202.833C120.399 202.855 120.436 202.877 120.472 202.899C120.477 202.902 120.482 202.905 120.488 202.908C121.22 203.342 122.038 203.645 122.912 203.785C122.915 203.786 122.919 203.786 122.923 203.787C122.966 203.794 123.008 203.8 123.051 203.806C123.065 203.808 123.077 203.809 123.09 203.811C123.128 203.816 123.165 203.821 123.203 203.825C123.222 203.827 123.241 203.83 123.261 203.832C123.294 203.836 123.327 203.839 123.362 203.843C123.385 203.845 123.408 203.847 123.432 203.849C123.462 203.852 123.493 203.854 123.524 203.857C123.551 203.859 123.578 203.86 123.606 203.862C123.634 203.863 123.662 203.865 123.69 203.866C123.724 203.868 123.759 203.869 123.794 203.871C123.814 203.871 123.835 203.872 123.855 203.873C123.912 203.874 123.969 203.875 124.026 203.875H231.977C232.034 203.875 232.091 203.874 232.148 203.873C232.168 203.872 232.189 203.871 232.209 203.871C232.244 203.869 232.278 203.869 232.313 203.866C232.341 203.865 232.369 203.864 232.397 203.862C232.424 203.86 232.452 203.858 232.479 203.857C232.51 203.855 232.541 203.852 232.571 203.849C232.595 203.847 232.618 203.845 232.641 203.843C232.675 203.839 232.709 203.836 232.742 203.832C232.762 203.83 232.781 203.828 232.8 203.825C232.838 203.821 232.875 203.816 232.913 203.811C232.925 203.809 232.938 203.808 232.952 203.806C232.994 203.8 233.037 203.793 233.079 203.787C233.084 203.786 233.087 203.786 233.091 203.785C233.965 203.645 234.783 203.341 235.515 202.908C235.521 202.906 235.526 202.902 235.531 202.899C235.567 202.877 235.603 202.855 235.639 202.833C235.65 202.826 235.661 202.819 235.672 202.812C235.702 202.794 235.732 202.774 235.762 202.755C235.781 202.743 235.8 202.73 235.819 202.718C235.841 202.702 235.864 202.688 235.886 202.673C235.915 202.653 235.943 202.634 235.971 202.614C235.985 202.604 235.998 202.595 236.012 202.585C237.497 201.527 238.556 199.896 238.852 197.981L243.925 165.112H278.828L277.621 175.578Z" fill="black"/>
</svg>
