<svg width="30" height="30" viewBox="0 0 100 100" fill="none" xmlns="http://www.w3.org/2000/svg">
<path d="M72.0156 70.9062C71.9922 70.7812 71.9531 70.6582 71.9043 70.541C71.8554 70.4218 71.7949 70.3086 71.7246 70.2031C71.6543 70.0957 71.5722 69.9961 71.4824 69.9062C71.0293 69.4531 70.3555 69.2441 69.7207 69.373C69.5957 69.3984 69.4726 69.4355 69.3555 69.4843C69.2363 69.5332 69.123 69.5937 69.0176 69.664C68.9102 69.7343 68.8105 69.8164 68.7207 69.9062C68.6309 69.9961 68.5488 70.0957 68.4785 70.2031C68.4082 70.3086 68.3477 70.4218 68.2988 70.541C68.25 70.6582 68.2129 70.7812 68.1875 70.9062C68.1621 71.0312 68.1484 71.1601 68.1484 71.2871C68.1484 71.414 68.1621 71.5429 68.1875 71.6699C68.2129 71.7929 68.25 71.916 68.2988 72.0351C68.3477 72.1523 68.4082 72.2656 68.4785 72.3711C68.5488 72.4785 68.6309 72.5781 68.7207 72.6679C68.8105 72.7578 68.9102 72.8398 69.0176 72.9121C69.123 72.9824 69.2363 73.0429 69.3555 73.0918C69.4726 73.1406 69.5957 73.1777 69.7207 73.2031C69.8457 73.2285 69.9746 73.2402 70.1016 73.2402C70.6152 73.2402 71.1191 73.0332 71.4824 72.6679C71.5722 72.5781 71.6543 72.4785 71.7246 72.3711C71.7949 72.2656 71.8554 72.1523 71.9043 72.0351C71.9531 71.916 71.9922 71.7929 72.0156 71.6699C72.041 71.5429 72.0547 71.414 72.0547 71.2871C72.0547 71.1601 72.041 71.0312 72.0156 70.9062Z" fill="black"/>
<path d="M81.9702 43.1265C81.5996 42.7109 81.0692 42.4732 80.5123 42.4732H78.2323V17.8983C78.2323 16.8196 77.3578 15.9452 76.2791 15.9452H69.4723V8.44652C69.4723 7.3678 68.5978 6.49338 67.5191 6.49338H58.7593C57.6806 6.49338 56.8062 7.3678 56.8062 8.44652V21.2325H51.9526V10.5518C51.9526 9.47308 51.0782 8.59867 49.9995 8.59867H43.1927V1.95313C43.1927 0.874418 42.3182 0 41.2395 0H32.4795C31.4008 0 30.5264 0.874418 30.5264 1.95313V18.9501H23.7195C22.6408 18.9501 21.7664 19.8245 21.7664 20.9032V42.4732H19.4865C18.9297 42.4732 18.3992 42.7109 18.0287 43.1265C17.6582 43.5422 17.4826 44.0963 17.5463 44.6494L23.7148 98.2701C23.8283 99.2559 24.6629 100 25.6553 100H74.3442C75.3365 100 76.1711 99.2559 76.2844 98.2701L82.453 44.6494C82.5163 44.0963 82.3407 43.5422 81.9702 43.1265ZM69.4725 19.8514H74.3262V42.4732H69.4725V19.8514ZM60.7125 10.3997H65.5662V42.947C65.2244 43.2416 64.9841 43.6541 64.9109 44.1287L63.4861 53.3617H60.7125V10.3997ZM51.9526 25.1388H56.8064V53.3615H51.9526V25.1388ZM43.1927 12.5049H48.0464V53.3615H43.1927V12.5049ZM34.4327 3.90627H39.2864V53.3615H36.5127L35.0879 44.1285C35.0147 43.6541 34.7745 43.2414 34.4327 42.9468V3.90627ZM25.6729 22.8563H30.5266V42.4732H25.6729V22.8563ZM34.5004 96.0939L35.3207 88.9615H64.6781L65.4984 96.0939H34.5004ZM72.6025 96.0939H69.4305L68.3599 86.7853C68.2465 85.7996 67.4119 85.0554 66.4195 85.0554H33.5793C32.5869 85.0554 31.7524 85.7996 31.6389 86.7853L30.5684 96.0939H27.3963L24.7676 73.2411H62.2763C63.355 73.2411 64.2295 72.3667 64.2295 71.288C64.2295 70.2093 63.355 69.3348 62.2763 69.3348H24.3184L22.4654 53.226H25.6117L27.0363 62.4594C27.1832 63.412 28.0029 64.1147 28.9666 64.1147H71.0322C71.9959 64.1147 72.8156 63.4118 72.9625 62.4594L74.3871 53.226H77.5334L72.6025 96.0939ZM77.9828 49.3197H72.7123C71.7486 49.3197 70.9291 50.0227 70.782 50.975L69.3574 60.2084H30.6414L29.2168 50.975C29.0697 50.0225 28.2502 49.3197 27.2865 49.3197H22.016L21.6779 46.3797H31.4821L32.9071 55.6125C32.9901 56.1504 33.2877 56.6088 33.7047 56.9059C33.7086 56.9086 33.7125 56.9114 33.7164 56.9141C33.7243 56.9196 33.7323 56.925 33.7401 56.9305C33.7463 56.9348 33.7526 56.9389 33.759 56.9432C33.7643 56.9467 33.7698 56.9502 33.775 56.9537C33.7834 56.9592 33.7918 56.9645 33.8002 56.9698C33.8034 56.9717 33.8065 56.9737 33.8096 56.9756C33.8196 56.9819 33.8297 56.9879 33.8399 56.994C33.8414 56.995 33.8428 56.9957 33.8444 56.9967C34.05 57.1186 34.2799 57.2035 34.5252 57.243C34.5262 57.2432 34.5274 57.2434 34.5286 57.2436C34.5405 57.2455 34.5524 57.2473 34.5645 57.2489C34.5682 57.2494 34.5717 57.2498 34.5754 57.2504C34.586 57.2518 34.5965 57.2532 34.6071 57.2543C34.6125 57.2549 34.6178 57.2557 34.6233 57.2563C34.6327 57.2573 34.642 57.2582 34.6516 57.2592C34.6582 57.2598 34.6647 57.2604 34.6713 57.261C34.6799 57.2617 34.6885 57.2623 34.6971 57.2631C34.7047 57.2637 34.7125 57.2641 34.7204 57.2645C34.7282 57.2649 34.736 57.2655 34.7438 57.2659C34.7536 57.2662 34.7633 57.2666 34.7731 57.267C34.7788 57.2672 34.7846 57.2674 34.7903 57.2676C34.8063 57.268 34.8223 57.2682 34.8383 57.2682H65.1615C65.1775 57.2682 65.1935 57.268 65.2095 57.2676C65.2152 57.2674 65.2211 57.2672 65.2267 57.267C65.2365 57.2666 65.2463 57.2664 65.256 57.2659C65.2638 57.2655 65.2716 57.2651 65.2795 57.2645C65.2873 57.2641 65.2949 57.2635 65.3027 57.2631C65.3113 57.2625 65.3199 57.2617 65.3285 57.261C65.3351 57.2604 65.3416 57.2598 65.3482 57.2592C65.3576 57.2582 65.3672 57.2573 65.3765 57.2563C65.382 57.2557 65.3873 57.2551 65.3927 57.2543C65.4033 57.2532 65.4138 57.2518 65.4244 57.2504C65.4279 57.2498 65.4316 57.2494 65.4353 57.2489C65.4472 57.2471 65.4593 57.2453 65.4713 57.2436C65.4724 57.2434 65.4734 57.2432 65.4746 57.243C65.7199 57.2035 65.9498 57.1184 66.1554 56.9967C66.157 56.9959 66.1584 56.995 66.1599 56.994C66.1701 56.9879 66.18 56.9819 66.1902 56.9756C66.1933 56.9737 66.1965 56.9717 66.1996 56.9698C66.208 56.9645 66.2164 56.959 66.2248 56.9537C66.2302 56.9502 66.2355 56.9467 66.2408 56.9432C66.247 56.9389 66.2535 56.9348 66.2597 56.9305C66.2677 56.925 66.2756 56.9196 66.2834 56.9141C66.2873 56.9114 66.2912 56.9086 66.2951 56.9059C66.7121 56.6088 67.0097 56.1506 67.0928 55.6125L68.5178 46.3797H78.3219L77.9828 49.3197Z" fill="black"/>
</svg>
