<svg width="30" height="30" viewBox="0 0 100 100" fill="none" xmlns="http://www.w3.org/2000/svg">
<g clip-path="url(#clip0)">
<path d="M61.8062 89.4398C61.7163 89.35 61.6167 89.2699 61.5093 89.1976C61.4038 89.1273 61.2905 89.0668 61.1714 89.0179C61.0542 88.9691 60.9312 88.932 60.8062 88.9066C60.5542 88.8558 60.2944 88.8558 60.0425 88.9066C59.9194 88.932 59.7964 88.9691 59.6772 89.0179C59.5601 89.0668 59.4466 89.1273 59.3413 89.1976C59.2339 89.2699 59.1343 89.35 59.0444 89.4398C58.6812 89.8051 58.4722 90.307 58.4722 90.8226C58.4722 90.9496 58.4839 91.0785 58.5093 91.2035C58.5347 91.3285 58.5718 91.4515 58.6206 91.5687C58.6694 91.6859 58.7302 91.7992 58.8005 91.9066C58.8728 92.0121 58.9548 92.1136 59.0446 92.2035C59.1345 92.2933 59.2341 92.3754 59.3415 92.4457C59.447 92.516 59.5603 92.5765 59.6774 92.6254C59.7966 92.6742 59.9196 92.7113 60.0427 92.7367C60.1696 92.7621 60.2985 92.7758 60.4255 92.7758C60.5524 92.7758 60.6813 92.7621 60.8062 92.7367C60.9312 92.7113 61.0542 92.6742 61.1714 92.6254C61.2905 92.5765 61.4038 92.516 61.5093 92.4457C61.6167 92.3754 61.7163 92.2933 61.8062 92.2035C61.896 92.1136 61.978 92.0121 62.0483 91.9066C62.1187 91.7992 62.1792 91.6859 62.228 91.5687C62.2769 91.4515 62.314 91.3285 62.3394 91.2035C62.3647 91.0785 62.3784 90.9496 62.3784 90.8226C62.3784 90.307 62.1694 89.8051 61.8062 89.4398Z" fill="black"/>
<path d="M97.3239 9.59128L88.3048 0.572144C87.5421 -0.190552 86.3054 -0.190552 85.5425 0.572144L60.3493 25.7653C56.654 23.4911 52.3704 22.2573 47.896 22.2573C40.9636 22.2573 34.4897 25.2184 29.9515 30.4229C28.673 30.2098 27.3605 30.0991 26.0226 30.0991C13.0901 30.0991 2.53096 40.4557 2.20381 53.311C2.13975 53.5044 2.10498 53.711 2.10498 53.9257C2.10498 57.5743 2.54502 61.1475 3.41318 64.546C4.95791 70.5934 7.846 76.1243 11.9972 80.9848C15.6929 85.312 20.3019 89.0116 25.7091 91.9932V98.047C25.7091 99.1257 26.5835 100 27.6622 100H68.1296C69.2083 100 70.0827 99.1257 70.0827 98.047V91.9932C75.49 89.0116 80.0991 85.312 83.7948 80.9848C87.946 76.1243 90.8341 70.5934 92.3788 64.546C93.247 61.1473 93.687 57.5741 93.687 53.9257C93.687 53.7108 93.6523 53.504 93.5882 53.3106C93.3349 43.3606 86.9515 34.9073 78.0823 31.595L97.3239 12.3534C98.0868 11.5907 98.0868 10.354 97.3239 9.59128ZM86.9237 4.71531L88.6712 6.46277L65.305 29.829C64.7398 29.2223 64.1472 28.6487 63.53 28.1093L86.9237 4.71531ZM47.896 26.1637C52.0569 26.1637 56.021 27.4409 59.3308 29.7727C59.4136 29.8432 59.5011 29.9055 59.5919 29.96C60.2661 30.4516 60.9122 30.9874 61.5259 31.5659C60.178 32.0614 58.8872 32.6745 57.6655 33.394C54.8745 31.2407 51.4593 30.0698 47.8958 30.0698C44.3323 30.0698 40.9171 31.2407 38.1261 33.394C36.9046 32.6745 35.6136 32.0614 34.2659 31.5659C37.9399 28.103 42.7685 26.1637 47.896 26.1637ZM47.896 37.8825C46.6612 37.8825 45.4483 38.1634 44.3481 38.6919C43.481 37.6466 42.5276 36.68 41.4995 35.8013C43.4042 34.6136 45.6097 33.9762 47.8958 33.9762C50.1819 33.9762 52.3874 34.6138 54.2923 35.8013C53.2644 36.6798 52.3112 37.6466 51.4439 38.6919C50.3437 38.1634 49.1308 37.8825 47.896 37.8825ZM49.154 41.9782C48.7523 42.6727 48.3831 43.3909 48.0493 44.1307H47.7427C47.4089 43.3909 47.0399 42.6727 46.638 41.9782C47.0431 41.8536 47.4671 41.7887 47.896 41.7887C48.3251 41.7887 48.7489 41.8536 49.154 41.9782ZM26.0226 34.0055C30.1444 34.0055 33.9778 35.2639 37.1589 37.4167C37.1683 37.4233 37.1776 37.43 37.187 37.4364C37.5013 37.6499 37.8083 37.8714 38.1081 38.1005C38.1155 38.1061 38.123 38.1118 38.1304 38.1175C38.1659 38.1446 38.2013 38.1721 38.2366 38.1995C39.7716 39.3942 42.289 42.4401 42.3056 42.4628C43.2214 43.7598 43.9862 45.1704 44.5745 46.669C44.579 46.6807 44.5837 46.6923 44.5882 46.704C45.2362 48.3643 45.6677 50.1321 45.8478 51.9723H41.9181C40.9517 44.06 34.1917 37.9114 26.0226 37.9114C17.8534 37.9114 11.0935 44.0598 10.1271 51.9723H6.19717C7.18193 41.9018 15.6976 34.0055 26.0226 34.0055ZM26.0226 45.7241C22.173 45.7241 18.9345 48.3899 18.056 51.9725H14.0722C15.0085 46.2214 20.0108 41.8178 26.0224 41.8178C32.0339 41.8178 37.0364 46.2214 37.9728 51.9725H33.9892C33.1106 48.3901 29.8722 45.7241 26.0226 45.7241ZM29.8476 51.9725H22.1974C22.9097 50.5833 24.3569 49.6304 26.0224 49.6304C27.6878 49.6304 29.1353 50.5833 29.8476 51.9725ZM67.2226 89.0968C66.5796 89.4341 66.1767 90.1003 66.1767 90.8263V96.0938H29.6153V92.7747H52.2306C53.3093 92.7747 54.1837 91.9003 54.1837 90.8216C54.1837 89.7429 53.3093 88.8684 52.2306 88.8684H28.1396C18.0079 83.4382 11.0632 75.5804 7.90967 66.0159H87.8827C84.6845 75.7151 77.588 83.6596 67.2226 89.0968ZM88.9376 62.1096H6.85459C6.42549 60.0874 6.15889 58.0024 6.05752 55.8788H89.7347C89.6335 58.0024 89.3669 60.0874 88.9376 62.1096ZM69.7694 45.7241C65.9198 45.7241 62.6814 48.3899 61.8028 51.9725H57.819C58.7554 46.2214 63.7577 41.8178 69.7694 41.8178C75.7812 41.8178 80.7835 46.2214 81.7198 51.9725H77.736C76.8575 48.3901 73.619 45.7241 69.7694 45.7241ZM73.5946 51.9725H65.9444C66.6567 50.5833 68.104 49.6304 69.7694 49.6304C71.4351 49.6305 72.8823 50.5833 73.5946 51.9725ZM89.5948 51.9725H85.6651C84.6987 44.0602 77.9388 37.9116 69.7696 37.9116C61.6005 37.9116 54.8405 44.06 53.8741 51.9725H49.9442C50.1226 50.1479 50.5483 48.3948 51.187 46.747C51.2001 46.713 51.2134 46.6792 51.2267 46.6454C51.2325 46.6305 51.2384 46.6157 51.2442 46.6011C51.2495 46.5878 51.2548 46.5747 51.2601 46.5614C51.2732 46.5284 51.2864 46.4956 51.2997 46.4626C51.311 46.4345 51.3226 46.4063 51.3341 46.3782C51.3396 46.3647 51.3452 46.3512 51.3507 46.338C51.9192 44.963 52.6376 43.6649 53.4851 42.4643C53.5023 42.4413 53.5189 42.4179 53.5349 42.3942C54.6649 40.8081 57.6265 38.1444 57.6618 38.1175C57.6691 38.112 57.6763 38.1065 57.6835 38.1009C57.9835 37.8716 58.2907 37.6501 58.605 37.4364C58.6146 37.43 58.6237 37.4233 58.6331 37.4167C60.7595 35.9776 63.1774 34.9382 65.7782 34.4071C65.781 34.4065 65.7837 34.4059 65.7864 34.4055C67.0737 34.1432 68.4058 34.0055 69.7694 34.0055C80.0946 34.0055 88.6103 41.9018 89.5948 51.9725ZM73.7255 30.4276C72.6868 30.2534 71.6257 30.1464 70.5468 30.1118L91.4335 9.22507L93.181 10.9725L73.7255 30.4276Z" fill="black"/>
</g>
<defs>
<clipPath id="clip0">
<rect width="100" height="100" fill="white"/>
</clipPath>
</defs>
</svg>
