<svg width="30" height="30" viewBox="0 0 100 100" fill="none" xmlns="http://www.w3.org/2000/svg">
<path d="M85.3555 14.6447C75.9115 5.20078 63.3555 0 50 0C36.6445 0 24.0885 5.20078 14.6445 14.6447C5.20098 24.0885 0 36.6445 0 50C0 63.3555 5.20098 75.9115 14.6445 85.3553C24.0885 94.7992 36.6445 100 50 100C63.3555 100 75.9115 94.7992 85.3555 85.3553C94.799 75.9115 100 63.3555 100 50C100 36.6445 94.799 24.0885 85.3555 14.6447ZM50 96.0938C24.5838 96.0938 3.90625 75.4162 3.90625 50C3.90625 24.5838 24.5838 3.90625 50 3.90625C75.4162 3.90625 96.0938 24.5838 96.0938 50C96.0938 75.4162 75.4162 96.0938 50 96.0938Z" fill="black"/>
<path d="M88.1766 49.9993C88.1766 48.5487 88.7577 46.8858 89.3727 45.1252C90.3175 42.4215 91.2942 39.6254 90.3979 36.8727C89.4657 34.0102 86.8616 32.2231 84.5639 30.6465C83.0762 29.6256 81.6708 28.6612 80.8759 27.57C80.0643 26.4561 79.5714 24.8051 79.0495 23.0573C78.2581 20.4055 77.3606 17.4 74.9598 15.6512C72.5811 13.9182 69.5936 13.9831 66.7048 14.0456C64.8677 14.0858 63.1327 14.1231 61.7964 13.6877C60.5501 13.2821 59.2206 12.2596 57.8132 11.1772C55.5884 9.46606 53.0665 7.52661 50.0001 7.52661C46.9337 7.52661 44.4118 9.46626 42.1868 11.1776C40.7792 12.26 39.4501 13.2825 38.2038 13.6883C36.8675 14.1235 35.1323 14.0858 33.2956 14.0461C30.4069 13.9833 27.419 13.919 25.0403 15.6516C22.6395 17.4004 21.7425 20.4059 20.9507 23.0577C20.4288 24.8055 19.9358 26.4565 19.1243 27.5706C18.3294 28.662 16.9239 29.6262 15.4362 30.6473C13.1385 32.2239 10.5344 34.011 9.60222 36.8737C8.70593 39.6262 9.68268 42.4221 10.6274 45.126C11.2424 46.8866 11.8235 48.5495 11.8235 50C11.8235 51.4506 11.2424 53.1135 10.6274 54.8741C9.68268 57.5778 8.70593 60.3739 9.60222 63.1266C10.5344 65.9891 13.1385 67.7762 15.4362 69.3528C16.9239 70.3739 18.3294 71.3383 19.1243 72.4295C19.9358 73.5434 20.4288 75.1944 20.9507 76.9422C21.7421 79.594 22.6395 82.5995 25.0401 84.3483C27.419 86.0813 30.4069 86.0163 33.2956 85.954C35.1317 85.9141 36.8675 85.8766 38.2038 86.3118C39.4501 86.7176 40.7796 87.7399 42.187 88.8225C44.4118 90.5336 46.9337 92.4731 50.0001 92.4731C53.0665 92.4731 55.5884 90.5334 57.8134 88.8215C59.2208 87.7393 60.5501 86.7169 61.7964 86.311C63.1323 85.8758 64.8669 85.9133 66.7046 85.9532C69.5932 86.0155 72.5811 86.0805 74.9598 84.3477C77.3606 82.5989 78.2577 79.5934 79.0495 76.9417C79.5714 75.1938 80.0643 73.5428 80.8759 72.4288C81.6708 71.3374 83.0762 70.3731 84.5639 69.352C86.8616 67.7754 89.4657 65.9883 90.3979 63.1256C91.2942 60.3731 90.3175 57.5772 89.3727 54.8733C88.7577 53.1127 88.1766 51.4499 88.1766 49.9993ZM85.6852 56.1622C86.4497 58.3506 87.172 60.4174 86.6837 61.9167C86.162 63.5184 84.3122 64.7879 82.3538 66.1319C80.66 67.2944 78.9083 68.4965 77.7186 70.1293C76.513 71.7844 75.8997 73.8385 75.3067 75.8249C74.6321 78.0844 73.9948 80.2186 72.6598 81.1911C71.3471 82.1471 69.1333 82.0993 66.7891 82.0485C64.7065 82.0034 62.5538 81.9569 60.5868 82.5973C58.7014 83.2114 57.0393 84.4897 55.4319 85.726C53.5325 87.187 51.7384 88.5668 50.0003 88.5668C48.2622 88.5668 46.4678 87.187 44.5684 85.726C42.9608 84.4899 41.2987 83.2114 39.4135 82.5975C37.9542 82.1223 36.3925 82.0252 34.8333 82.0252C34.2907 82.0252 33.7485 82.037 33.211 82.0483C30.8667 82.0989 28.6532 82.1469 27.3403 81.1907C26.0053 80.2182 25.3682 78.0838 24.6936 75.8243C24.1005 73.8379 23.4872 71.784 22.2817 70.129C21.0923 68.4959 19.3405 67.294 17.6466 66.1315C15.6882 64.7876 13.8383 63.518 13.3167 61.9165C12.8284 60.4172 13.5507 58.3501 14.3151 56.1618C15.0106 54.1711 15.7298 52.1127 15.7298 49.9993C15.7298 47.8858 15.0106 45.8274 14.3151 43.8368C13.5507 41.6483 12.8284 39.5815 13.3167 38.0823C13.8383 36.4805 15.6882 35.211 17.6466 33.867C19.3403 32.7045 21.0921 31.5024 22.2817 29.8696C23.4874 28.2145 24.1007 26.1604 24.6936 24.1741C25.3682 21.9145 26.0055 19.7803 27.3403 18.8079C28.653 17.8518 30.8663 17.8999 33.2112 17.9504C35.2928 17.9956 37.4464 18.0422 39.4135 17.4018C41.2989 16.7877 42.961 15.5094 44.5684 14.2731C46.468 12.8122 48.2622 11.4323 50.0003 11.4323C51.7382 11.4323 53.5325 12.8122 55.4319 14.2731C57.0395 15.5094 58.7016 16.7877 60.5868 17.4016C62.554 18.0424 64.7075 17.9958 66.7893 17.9506C69.1327 17.8999 71.3471 17.852 72.66 18.8083C73.995 19.7807 74.6321 21.9151 75.3067 24.1747C75.9001 26.161 76.5132 28.2149 77.7186 29.87C78.9081 31.503 80.6598 32.7049 82.3538 33.8674C84.3122 35.2114 86.162 36.4809 86.6837 38.0825C87.172 39.5817 86.4497 41.6489 85.6852 43.8372C84.9897 45.8278 84.2706 47.8862 84.2706 49.9997C84.2706 52.1131 84.9897 54.1715 85.6852 56.1622Z" fill="black"/>
<path d="M76.9049 58.8955C75.8813 58.5551 74.7755 59.1086 74.4348 60.1319C71.3587 69.3731 62.7542 75.5821 53.0239 75.5821C51.9454 75.5821 51.0708 76.4565 51.0708 77.5352C51.0708 78.6139 51.9454 79.4883 53.0239 79.4883C64.4391 79.4883 74.5329 72.2053 78.1413 61.3657C78.4819 60.3422 77.9284 59.2364 76.9049 58.8955Z" fill="black"/>
<path d="M77.5357 51.0709H77.5078C76.4293 51.0709 75.5547 51.9453 75.5547 53.024C75.5547 54.1028 76.4293 54.9772 77.5078 54.9772H77.5357C78.6145 54.9772 79.4889 54.1028 79.4889 53.024C79.4889 51.9453 78.6145 51.0709 77.5357 51.0709Z" fill="black"/>
<path d="M41.1898 41.4324C38.9052 39.1246 35.8591 37.849 32.6126 37.8408C29.3595 37.8354 26.3142 39.0924 24.0185 41.3879C23.6726 41.734 23.3445 42.1041 23.0437 42.4879C21.6718 44.2379 21.8214 46.7412 23.3913 48.3109L24.7308 49.6504C23.2853 50.4982 21.8743 51.342 21.0945 51.8527C20.231 52.4181 19.6562 53.3648 19.557 54.3849C19.4624 55.3568 19.7984 56.2955 20.4693 56.9507L25.5888 62.0226C26.1925 62.6259 27.0083 62.957 27.8679 62.957C27.9826 62.957 28.098 62.9511 28.2142 62.9392C29.2245 62.8351 30.1232 62.2886 30.6798 61.4396C31.1865 60.667 32.0322 59.2531 32.8829 57.8023L34.2222 59.1416C35.7921 60.7119 38.296 60.8607 40.046 59.489C40.5007 59.1326 40.9357 58.7382 41.3386 58.3168C43.5222 56.0328 44.7095 53.024 44.681 49.8445C44.6525 46.6656 43.4128 43.6783 41.1898 41.4324ZM38.5152 55.617C38.2408 55.9041 37.9451 56.1722 37.6363 56.4142C37.4388 56.5689 37.1585 56.5539 36.9841 56.3793L33.8509 53.2461C33.4214 52.8168 32.815 52.6119 32.2152 52.6908C31.6132 52.7701 31.0824 53.1246 30.7787 53.6504C29.4681 55.9191 28.432 57.6703 27.7896 58.7043L23.8058 54.7576C25.1691 53.9095 27.4956 52.5554 28.8827 51.7543C29.4083 51.4506 29.763 50.9197 29.8423 50.3178C29.9214 49.7158 29.7161 49.1113 29.2869 48.682L26.1535 45.5486C25.979 45.3742 25.9638 45.0941 26.1179 44.8975C26.3224 44.6369 26.5454 44.3854 26.7808 44.1498C28.3308 42.5996 30.39 41.7469 32.5814 41.7469C32.5886 41.7469 32.5956 41.7469 32.6029 41.7469C34.8021 41.7524 36.8656 42.6166 38.4134 44.1803C41.5089 47.3074 41.5544 52.4381 38.5152 55.617Z" fill="black"/>
<path d="M50.7946 18.0138C42.8907 18.0138 36.4604 24.4441 36.4604 32.348C36.4604 33.4267 37.3351 34.3011 38.4136 34.3011H63.1755C64.254 34.3011 65.1286 33.4267 65.1288 32.348C65.1288 24.4441 58.6985 18.0138 50.7946 18.0138ZM40.5501 30.3948C41.4673 25.5753 45.712 21.92 50.7944 21.92C55.8769 21.92 60.1218 25.5753 61.0388 30.3948H40.5501Z" fill="black"/>
<path d="M53.0239 42.2504C51.9454 42.2504 51.0708 43.1248 51.0708 44.2035V68.6351C51.0708 69.7138 51.9454 70.5882 53.0239 70.5882C60.8366 70.5882 67.1928 64.232 67.1928 56.4191C67.1928 48.6064 60.8366 42.2504 53.0239 42.2504ZM54.977 66.4955V46.3431C59.7052 47.2578 63.2866 51.4281 63.2866 56.4193C63.2866 61.4105 59.7052 65.5808 54.977 66.4955Z" fill="black"/>
<path d="M74.0032 34.5876C70.0184 34.5876 66.7766 37.8294 66.7766 41.8142C66.7766 45.799 70.0184 49.0408 74.0032 49.0408C77.9881 49.0408 81.2297 45.799 81.2297 41.8142C81.2297 37.8294 77.9879 34.5876 74.0032 34.5876ZM74.0032 45.1345C72.1723 45.1345 70.6828 43.6451 70.6828 41.8142C70.6828 39.9833 72.1723 38.4939 74.0032 38.4939C75.834 38.4939 77.3235 39.9833 77.3235 41.8142C77.3235 43.6451 75.834 45.1345 74.0032 45.1345Z" fill="black"/>
<path d="M39.0979 65.903C35.1131 65.903 31.8713 69.1448 31.8713 73.1295C31.8713 77.1143 35.1131 80.3561 39.0979 80.3561C43.0827 80.3561 46.3245 77.1143 46.3245 73.1295C46.3245 69.1448 43.0827 65.903 39.0979 65.903ZM39.0979 76.4499C37.267 76.4499 35.7776 74.9604 35.7776 73.1295C35.7776 71.2987 37.267 69.8092 39.0979 69.8092C40.9288 69.8092 42.4182 71.2987 42.4182 73.1295C42.4182 74.9604 40.9288 76.4499 39.0979 76.4499Z" fill="black"/>
</svg>
