<svg width="356" height="356" viewBox="0 0 356 356" fill="none" xmlns="http://www.w3.org/2000/svg">
<path d="M303.865 52.1352C270.245 18.5148 225.545 0 178 0C130.455 0 85.755 18.5148 52.1345 52.1352C18.5155 85.755 0 130.455 0 178C0 225.545 18.5155 270.245 52.1345 303.865C85.755 337.485 130.455 356 178 356C225.545 356 270.245 337.485 303.865 303.865C337.485 270.245 356 225.545 356 178C356 130.455 337.485 85.755 303.865 52.1352ZM178 342.094C87.5183 342.094 13.9062 268.482 13.9062 178C13.9062 87.5183 87.5183 13.9062 178 13.9062C268.482 13.9062 342.094 87.5183 342.094 178C342.094 268.482 268.482 342.094 178 342.094Z" fill="black"/>
<path d="M313.909 177.998C313.909 172.834 315.977 166.914 318.167 160.646C321.53 151.021 325.007 141.067 321.816 131.267C318.498 121.077 309.227 114.715 301.047 109.102C295.751 105.468 290.748 102.034 287.918 98.1496C285.029 94.1843 283.274 88.3068 281.416 82.0844C278.599 72.6442 275.404 61.9447 266.857 55.7189C258.389 49.5494 247.753 49.7802 237.469 50.0027C230.929 50.146 224.752 50.2788 219.995 48.7289C215.558 47.2848 210.825 43.6448 205.815 39.7914C197.894 33.6997 188.916 26.7953 178 26.7953C167.084 26.7953 158.106 33.7004 150.185 39.7928C145.174 43.6462 140.442 47.2861 136.005 48.731C131.248 50.2802 125.071 50.146 118.532 50.0048C108.248 49.7809 97.6115 49.5522 89.1433 55.7203C80.5965 61.9461 77.4029 72.6456 74.5841 82.0858C72.7263 88.3082 70.9713 94.1857 68.0823 98.1517C65.2523 102.037 60.2489 105.47 54.9527 109.105C46.773 114.718 37.5024 121.08 34.1837 131.271C30.9929 141.07 34.4702 151.023 37.8334 160.649C40.0229 166.917 42.0915 172.837 42.0915 178.001C42.0915 183.165 40.0229 189.085 37.8334 195.352C34.4702 204.977 30.9929 214.932 34.1837 224.731C37.5024 234.922 46.773 241.284 54.9527 246.896C60.2489 250.532 65.2523 253.965 68.0823 257.85C70.9713 261.815 72.7263 267.693 74.5841 273.915C77.4015 283.355 80.5965 294.055 89.1426 300.28C97.6115 306.45 108.248 306.218 118.532 305.997C125.069 305.855 131.248 305.721 136.005 307.27C140.442 308.715 145.175 312.355 150.185 316.209C158.106 322.3 167.084 329.205 178 329.205C188.916 329.205 197.894 322.3 205.815 316.205C210.826 312.352 215.558 308.712 219.995 307.268C224.751 305.718 230.926 305.852 237.468 305.994C247.752 306.216 258.389 306.447 266.857 300.278C275.404 294.053 278.597 283.353 281.416 273.913C283.274 267.69 285.029 261.813 287.918 257.847C290.748 253.962 295.751 250.529 301.047 246.894C309.227 241.281 318.498 234.919 321.816 224.728C325.007 214.929 321.53 204.975 318.167 195.349C315.977 189.082 313.909 183.162 313.909 177.998ZM305.039 199.938C307.761 207.729 310.332 215.087 308.594 220.424C306.736 226.126 300.151 230.646 293.179 235.43C287.149 239.569 280.913 243.848 276.678 249.661C272.386 255.553 270.203 262.866 268.092 269.937C265.69 277.981 263.421 285.579 258.669 289.041C253.996 292.444 246.114 292.274 237.769 292.093C230.355 291.933 222.691 291.767 215.689 294.047C208.977 296.233 203.06 300.784 197.337 305.185C190.575 310.386 184.188 315.299 178.001 315.299C171.813 315.299 165.425 310.386 158.663 305.185C152.94 300.785 147.023 296.233 140.312 294.048C135.117 292.356 129.557 292.01 124.006 292.01C122.075 292.01 120.144 292.052 118.231 292.092C109.885 292.273 102.005 292.444 97.3313 289.039C92.5788 285.577 90.3107 277.979 87.9091 269.935C85.7974 262.864 83.6142 255.552 79.3227 249.66C75.0882 243.846 68.852 239.567 62.8215 235.429C55.8496 230.644 49.2643 226.125 47.4071 220.423C45.6689 215.086 48.2401 207.727 50.9616 199.936C53.4376 192.85 55.9977 185.522 55.9977 177.998C55.9977 170.474 53.4376 163.146 50.9616 156.059C48.2401 148.268 45.6689 140.911 47.4071 135.573C49.2643 129.871 55.8496 125.352 62.8215 120.567C68.8513 116.429 75.0875 112.149 79.3227 106.336C83.6148 100.444 85.7981 93.1316 87.9091 86.0602C90.3107 78.0162 92.5795 70.4185 97.3313 66.9565C102.004 63.553 109.884 63.724 118.232 63.9041C125.642 64.0647 133.309 64.2309 140.312 61.951C147.024 59.7649 152.941 55.2141 158.663 50.8128C165.426 45.6118 171.813 40.6995 178.001 40.6995C184.188 40.6995 190.575 45.6118 197.337 50.8128C203.061 55.2141 208.978 59.7649 215.689 61.9503C222.692 64.2316 230.358 64.0654 237.77 63.9048C246.112 63.724 253.996 63.5537 258.67 66.9579C263.422 70.4199 265.69 78.0183 268.092 86.0623C270.204 93.1337 272.387 100.446 276.678 106.338C280.913 112.151 287.149 116.43 293.179 120.569C300.151 125.353 306.736 129.873 308.594 135.574C310.332 140.911 307.761 148.271 305.039 156.061C302.563 163.147 300.003 170.475 300.003 177.999C300.003 185.523 302.563 192.851 305.039 199.938Z" fill="black"/>
<path d="M273.782 209.667C270.138 208.455 266.201 210.426 264.989 214.069C254.037 246.967 223.405 269.071 188.766 269.071C184.926 269.071 181.812 272.184 181.812 276.024C181.812 279.865 184.926 282.978 188.766 282.978C229.404 282.978 265.338 257.05 278.184 218.461C279.396 214.817 277.426 210.881 273.782 209.667Z" fill="black"/>
<path d="M276.024 181.813H275.925C272.085 181.813 268.972 184.926 268.972 188.766C268.972 192.606 272.085 195.719 275.925 195.719H276.024C279.864 195.719 282.977 192.606 282.977 188.766C282.977 184.926 279.864 181.813 276.024 181.813Z" fill="black"/>
<path d="M146.634 147.5C138.501 139.284 127.657 134.743 116.1 134.714C104.519 134.695 93.6773 139.17 85.5046 147.342C84.2732 148.574 83.1051 149.891 82.0343 151.258C77.1504 157.488 77.683 166.399 83.2719 171.988L88.0404 176.756C82.8944 179.774 77.8714 182.778 75.0951 184.596C72.0211 186.609 69.9748 189.98 69.6216 193.611C69.285 197.071 70.481 200.413 72.8694 202.746L91.0949 220.801C93.2441 222.949 96.1484 224.128 99.2085 224.128C99.6167 224.128 100.028 224.107 100.441 224.064C104.038 223.694 107.237 221.748 109.219 218.726C111.023 215.975 114.033 210.942 117.062 205.777L121.83 210.545C127.419 216.135 136.333 216.665 142.563 211.782C144.181 210.513 145.73 209.109 147.164 207.609C154.938 199.478 159.165 188.766 159.063 177.447C158.962 166.13 154.548 155.496 146.634 147.5ZM137.113 197.997C136.136 199.019 135.083 199.974 133.984 200.835C133.281 201.386 132.283 201.333 131.662 200.711L120.508 189.557C118.979 188.029 116.82 187.299 114.685 187.58C112.542 187.862 110.652 189.124 109.571 190.996C104.905 199.073 101.217 205.307 98.9297 208.988L84.7474 194.938C89.6007 191.919 97.8832 187.098 102.821 184.246C104.692 183.165 105.955 181.275 106.237 179.132C106.519 176.989 105.788 174.837 104.26 173.309L93.1051 162.154C92.4841 161.533 92.4299 160.536 92.9785 159.836C93.7065 158.908 94.5005 158.013 95.3384 157.174C100.856 151.655 108.187 148.62 115.988 148.62C116.014 148.62 116.039 148.62 116.065 148.62C123.894 148.639 131.24 151.716 136.751 157.283C147.771 168.415 147.933 186.68 137.113 197.997Z" fill="black"/>
<path d="M180.83 64.1294C152.692 64.1294 129.8 87.0212 129.8 115.159C129.8 118.999 132.914 122.112 136.753 122.112H224.906C228.745 122.112 231.859 118.999 231.86 115.159C231.86 87.0212 208.968 64.1294 180.83 64.1294ZM144.359 108.206C147.625 91.0484 162.736 78.0356 180.829 78.0356C198.923 78.0356 214.035 91.0484 217.299 108.206H144.359Z" fill="black"/>
<path d="M188.766 150.411C184.926 150.411 181.812 153.524 181.812 157.365V244.341C181.812 248.181 184.926 251.294 188.766 251.294C216.579 251.294 239.207 228.666 239.207 200.852C239.207 173.039 216.579 150.411 188.766 150.411ZM195.719 236.724V164.982C212.551 168.238 225.301 183.084 225.301 200.853C225.301 218.622 212.551 233.468 195.719 236.724Z" fill="black"/>
<path d="M263.453 123.131C249.267 123.131 237.726 134.672 237.726 148.858C237.726 163.044 249.267 174.585 263.453 174.585C277.639 174.585 289.179 163.044 289.179 148.858C289.179 134.672 277.638 123.131 263.453 123.131ZM263.453 160.678C256.935 160.678 251.632 155.376 251.632 148.858C251.632 142.34 256.935 137.038 263.453 137.038C269.97 137.038 275.273 142.34 275.273 148.858C275.273 155.376 269.97 160.678 263.453 160.678Z" fill="black"/>
<path d="M139.186 234.616C125 234.616 113.459 246.157 113.459 260.342C113.459 274.528 125 286.069 139.186 286.069C153.372 286.069 164.913 274.528 164.913 260.342C164.913 246.157 153.372 234.616 139.186 234.616ZM139.186 272.163C132.668 272.163 127.366 266.86 127.366 260.342C127.366 253.825 132.668 248.522 139.186 248.522C145.704 248.522 151.006 253.825 151.006 260.342C151.006 266.86 145.704 272.163 139.186 272.163Z" fill="black"/>
</svg>
