<svg width="357" height="356" viewBox="0 0 357 356" fill="none" xmlns="http://www.w3.org/2000/svg">
<path d="M202.904 8.68457C119.733 20.5 55.7812 91.7967 55.7812 178C55.7812 264.204 119.733 335.5 202.904 347.316C286.076 335.5 350.027 264.204 350.027 178C350.027 91.7967 286.076 20.5 202.904 8.68457Z" fill="#FF8859"/>
<path d="M178.5 356C130.821 356 85.9959 337.485 52.281 303.865C18.5675 270.245 0 225.545 0 178C0 130.455 18.5675 85.755 52.281 52.1352C85.9959 18.5148 130.821 0 178.5 0C226.179 0 271.004 18.5148 304.719 52.1352C338.432 85.755 357 130.455 357 178C357 225.545 338.432 270.245 304.719 303.865C271.004 337.485 226.179 356 178.5 356ZM178.5 13.9062C87.7641 13.9062 13.9453 87.5183 13.9453 178C13.9453 268.482 87.7641 342.094 178.5 342.094C269.236 342.094 343.055 268.482 343.055 178C343.055 87.5183 269.236 13.9062 178.5 13.9062Z" fill="black"/>
<path d="M132.954 288.509C121.956 280.52 122.41 260.728 114.398 249.76C106.461 238.896 87.3974 233.268 83.1385 220.227C79.0246 207.63 90.9744 191.948 90.9744 178C90.9744 164.053 79.0246 148.37 83.1385 135.774C87.3967 122.732 106.461 117.104 114.398 106.239C122.409 95.2723 121.955 75.4809 132.954 67.4911C143.849 59.5771 162.548 66.056 175.626 61.8097C184.513 58.9235 192.706 49.9804 201.653 44.9275C194.338 39.3205 186.89 33.7483 178.501 33.7483C163.735 33.7483 151.883 51.0108 138.547 55.3412C124.742 59.8246 105.001 52.9841 93.4998 61.339C81.889 69.7731 82.3687 90.6659 73.9109 102.244C65.5325 113.713 45.4073 119.656 40.9114 133.422C36.5681 146.721 49.183 163.276 49.183 178C49.183 192.724 36.5681 209.28 40.9107 222.578C45.4067 236.345 65.5318 242.287 73.9102 253.756C82.368 265.334 81.889 286.227 93.4991 294.661C105.001 303.016 124.741 296.175 138.547 300.659C151.882 304.989 163.735 322.252 178.5 322.252C186.889 322.252 194.338 316.679 201.652 311.072C192.705 306.019 184.513 297.076 175.626 294.19C162.548 289.943 143.849 296.423 132.954 288.509Z" fill="white"/>
<path d="M316.089 133.422C311.593 119.655 291.468 113.714 283.09 102.244C275.256 91.5213 275.082 72.8146 265.876 63.4091C265.141 62.6596 264.358 61.9615 263.5 61.3392C257.799 57.1972 250.071 56.7905 242.047 56.8864C233.884 56.9838 225.414 57.6019 218.453 55.3414C212.694 53.4717 207.211 49.19 201.652 44.9277C192.705 49.9806 184.512 58.9237 175.625 61.8099C162.547 66.0569 143.848 59.5773 132.953 67.4913C121.955 75.4805 122.409 95.2718 114.397 106.24C106.461 117.104 87.3959 122.733 83.1377 135.774C79.0239 148.371 90.9736 164.053 90.9736 178C90.9736 191.947 79.0239 207.63 83.1377 220.227C87.3966 233.268 106.461 238.897 114.397 249.761C122.408 260.728 121.954 280.519 132.953 288.509C143.848 296.423 162.547 289.944 175.625 294.19C184.512 297.077 192.705 306.02 201.651 311.073C207.211 306.811 212.693 302.529 218.452 300.659C225.413 298.398 233.883 299.016 242.045 299.114C250.07 299.21 257.797 298.803 263.499 294.661C264.356 294.038 265.14 293.341 265.874 292.59C275.08 283.185 275.255 264.479 283.088 253.755C291.467 242.286 311.592 236.344 316.088 222.577C320.43 209.279 307.816 192.724 307.816 177.999C307.817 163.276 320.432 146.721 316.089 133.422Z" fill="#EECCB0"/>
<path d="M178.5 329.205C167.553 329.205 158.55 322.3 150.607 316.209C145.583 312.354 140.837 308.715 136.387 307.27C131.617 305.721 125.42 305.855 118.865 305.996C108.553 306.218 97.8857 306.45 89.393 300.28C80.8229 294.055 77.619 283.355 74.7937 273.915C72.9306 267.692 71.1707 261.815 68.2736 257.85C65.4357 253.965 60.4182 250.531 55.1071 246.896C46.9045 241.284 37.6078 234.922 34.2798 224.731C31.08 214.931 34.567 204.977 37.9397 195.352C40.1354 189.085 42.2098 183.165 42.2098 178.001C42.2098 172.837 40.1354 166.917 37.9397 160.649C34.567 151.023 31.08 141.07 34.2798 131.271C37.6078 121.08 46.9045 114.717 55.1071 109.105C60.4182 105.47 65.4357 102.037 68.2736 98.1516C71.1707 94.1855 72.9306 88.3081 74.7937 82.0857C77.6204 72.6455 80.8229 61.946 89.3937 55.7202C97.8857 49.552 108.553 49.7808 118.865 50.0047C125.422 50.1458 131.617 50.28 136.387 48.7309C140.837 47.286 145.581 43.6461 150.607 39.7926C158.55 33.7003 167.553 26.7952 178.5 26.7952C189.447 26.7952 198.45 33.6996 206.393 39.7913C211.417 43.6447 216.164 47.2846 220.613 48.7288C225.384 50.2787 231.577 50.1458 238.136 50.0026C248.449 49.7801 259.114 49.5493 267.606 55.7188C276.177 61.9446 279.381 72.6441 282.207 82.0843C284.07 88.3067 285.83 94.1842 288.727 98.1495C291.565 102.034 296.582 105.468 301.893 109.102C310.096 114.715 319.392 121.077 322.72 131.267C325.92 141.067 322.433 151.021 319.06 160.646C316.865 166.914 314.79 172.834 314.79 177.998C314.79 183.162 316.865 189.082 319.06 195.349C322.433 204.975 325.92 214.929 322.72 224.728C319.392 234.919 310.096 241.281 301.893 246.894C296.582 250.529 291.565 253.961 288.727 257.847C285.83 261.813 284.07 267.69 282.207 273.913C279.38 283.353 276.177 294.052 267.606 300.278C259.114 306.447 248.448 306.216 238.135 305.994C231.575 305.852 225.382 305.718 220.613 307.268C216.164 308.712 211.418 312.352 206.394 316.205C198.45 322.299 189.447 329.205 178.5 329.205ZM124.355 292.01C129.921 292.01 135.496 292.356 140.706 294.048C147.436 296.233 153.37 300.784 159.109 305.185C165.89 310.386 172.296 315.298 178.501 315.298C184.706 315.298 191.111 310.386 197.892 305.185C203.63 300.784 209.564 296.233 216.295 294.047C223.317 291.767 231.002 291.932 238.437 292.093C246.806 292.274 254.709 292.444 259.395 289.041C264.161 285.579 266.436 277.981 268.845 269.937C270.962 262.866 273.151 255.553 277.455 249.661C281.702 243.848 287.956 239.568 294.003 235.43C300.994 230.645 307.598 226.126 309.461 220.424C311.204 215.086 308.625 207.729 305.896 199.938C303.413 192.851 300.846 185.523 300.846 177.999C300.846 170.475 303.413 163.147 305.896 156.061C308.625 148.27 311.204 140.911 309.461 135.574C307.598 129.872 300.994 125.353 294.003 120.568C287.955 116.43 281.702 112.151 277.455 106.338C273.152 100.445 270.963 93.1335 268.845 86.0622C266.436 78.0181 264.162 70.4198 259.396 66.9578C254.709 63.5536 246.804 63.7239 238.438 63.9047C231.006 64.0653 223.318 64.2315 216.295 61.9502C209.565 59.7648 203.631 55.214 197.892 50.8127C191.111 45.6117 184.705 40.6993 178.501 40.6993C172.296 40.6993 165.891 45.6117 159.109 50.8127C153.371 55.214 147.437 59.7648 140.706 61.9509C133.683 64.2308 125.995 64.0646 118.564 63.904C110.192 63.7239 102.291 63.5529 97.6047 66.9564C92.8396 70.4184 90.5644 78.0161 88.1561 86.0601C86.0392 93.1314 83.8498 100.444 79.5456 106.336C75.2985 112.149 69.0447 116.429 62.998 120.567C56.0066 125.352 49.4028 129.871 47.5404 135.573C45.7972 140.911 48.3757 148.268 51.1048 156.059C53.5877 163.146 56.1551 170.474 56.1551 177.998C56.1551 185.522 53.5877 192.85 51.1048 199.936C48.3757 207.727 45.7972 215.086 47.5404 220.423C49.4028 226.125 56.0066 230.644 62.998 235.429C69.0454 239.567 75.2992 243.846 79.5456 249.66C83.8491 255.552 86.0385 262.863 88.1561 269.935C90.5644 277.979 92.8389 285.577 97.6047 289.039C102.292 292.443 110.194 292.272 118.563 292.092C120.482 292.052 122.418 292.01 124.355 292.01Z" fill="black"/>
<path d="M189.296 282.978C185.446 282.978 182.323 279.865 182.323 276.025C182.323 272.184 185.446 269.071 189.296 269.071C224.033 269.071 254.751 246.967 265.733 214.069C266.949 210.426 270.897 208.455 274.551 209.667C278.205 210.881 280.181 214.818 278.965 218.461C266.083 257.05 230.048 282.978 189.296 282.978Z" fill="black"/>
<path d="M276.8 195.719H276.7C272.85 195.719 269.728 192.606 269.728 188.766C269.728 184.926 272.85 181.813 276.7 181.813H276.8C280.651 181.813 283.773 184.926 283.773 188.766C283.773 192.606 280.651 195.719 276.8 195.719Z" fill="black"/>
<path d="M92.7453 203.995C96.9247 201.265 106.826 195.502 113.241 191.807L102.056 180.653C98.9335 177.539 98.6469 172.594 101.371 169.128C102.267 167.988 103.241 166.889 104.295 165.839C116.092 154.075 133.99 152.121 147.826 159.957C146.288 157.25 144.381 154.699 142.09 152.392C127.94 138.137 104.881 138.093 90.6751 152.258C89.6222 153.308 88.6475 154.407 87.7515 155.547C85.0273 159.013 85.3138 163.958 88.4362 167.072L99.6217 178.226C93.2062 181.922 83.305 187.684 79.1256 190.414C76.5039 192.126 75.9098 195.788 77.9814 197.806L91.0656 210.732C89.6759 208.652 90.3857 205.536 92.7453 203.995Z" fill="white"/>
<path d="M103.694 214.913C106.433 210.747 112.21 200.872 115.916 194.475L127.102 205.629C130.226 208.744 135.185 209.027 138.662 206.309C140.016 205.251 141.312 204.082 142.537 202.804C153.797 191.061 155.521 173.503 147.825 159.958C133.989 152.123 116.091 154.076 104.294 165.84C103.241 166.89 102.267 167.988 101.371 169.129C98.6464 172.595 98.933 177.539 102.055 180.653L113.241 191.808C106.825 195.503 96.9242 201.266 92.7448 203.996C90.3859 205.536 89.6761 208.653 91.0658 210.733L96.2806 215.884C98.3124 217.91 101.978 217.523 103.694 214.913Z" fill="#D04E42"/>
<path d="M99.4873 224.128C96.4187 224.128 93.5062 222.949 91.3509 220.801L73.0742 202.745C70.6791 200.413 69.4798 197.071 69.8173 193.611C70.1715 189.979 72.2235 186.609 75.3061 184.596C78.0903 182.778 83.1274 179.774 88.2878 176.756L83.506 171.988C77.9014 166.399 77.3673 157.488 82.2649 151.257C83.3387 149.891 84.5101 148.574 85.7449 147.341C93.9406 139.169 104.812 134.694 116.426 134.714C128.016 134.743 138.891 139.284 147.046 147.5H147.046C154.983 155.495 159.408 166.13 159.51 177.447C159.612 188.766 155.373 199.477 147.578 207.608C146.139 209.109 144.586 210.513 142.963 211.782C136.716 216.665 127.777 216.135 122.172 210.545L117.391 205.777C114.354 210.942 111.335 215.975 109.526 218.726C107.539 221.748 104.331 223.694 100.724 224.064C100.309 224.107 99.8966 224.128 99.4873 224.128ZM101.172 210.928L101.188 210.944C101.182 210.939 101.177 210.933 101.172 210.928ZM84.9856 194.938L99.2077 208.988C101.501 205.307 105.2 199.073 109.879 190.996C110.963 189.124 112.858 187.862 115.007 187.58C117.148 187.299 119.313 188.028 120.847 189.557L132.032 200.711C132.655 201.333 133.655 201.386 134.36 200.835C135.463 199.974 136.518 199.019 137.498 197.997C148.348 186.68 148.186 168.415 137.135 157.282C131.609 151.716 124.242 148.639 116.391 148.619C116.365 148.619 116.34 148.619 116.314 148.619C108.491 148.619 101.14 151.655 95.6063 157.174C94.7661 158.012 93.9699 158.908 93.2398 159.836C92.6897 160.536 92.7441 161.533 93.3667 162.154L104.553 173.309C106.086 174.837 106.818 176.989 106.536 179.132C106.253 181.275 104.987 183.165 103.11 184.246C98.1583 187.098 89.8525 191.919 84.9856 194.938ZM82.8541 192.832L82.8819 192.86C82.8729 192.85 82.8638 192.841 82.8541 192.832Z" fill="black"/>
<path d="M195.457 73.393C191.021 71.9023 186.277 71.0825 181.337 71.0825C156.926 71.0825 137.137 90.8162 137.137 115.159H165.375C165.376 95.7418 177.972 79.2691 195.457 73.393Z" fill="white"/>
<path d="M195.457 73.3931C177.972 79.2692 165.376 95.7418 165.376 115.159H225.538C225.537 95.7418 212.941 79.2692 195.457 73.3931Z" fill="#FFD15C"/>
<path d="M225.538 122.112H137.138C133.287 122.112 130.165 118.999 130.165 115.159C130.165 87.0212 153.121 64.1294 181.338 64.1294C209.555 64.1294 232.511 87.0212 232.511 115.159C232.51 118.999 229.388 122.112 225.538 122.112ZM144.765 108.206H217.91C214.636 91.0484 199.482 78.0356 181.337 78.0356C163.193 78.0356 148.039 91.0484 144.765 108.206Z" fill="black"/>
<path d="M189.296 157.365V244.34C196.397 244.34 203.095 242.638 209.019 239.636V162.07C203.094 159.067 196.397 157.365 189.296 157.365Z" fill="white"/>
<path d="M232.906 200.853C232.906 183.916 223.19 169.25 209.018 162.07V239.636C223.19 232.455 232.906 217.79 232.906 200.853Z" fill="#FF5F5F"/>
<path d="M189.296 251.294C185.446 251.294 182.323 248.181 182.323 244.341V157.365C182.323 153.524 185.446 150.411 189.296 150.411C217.187 150.411 239.879 173.039 239.879 200.852C239.879 228.666 217.187 251.294 189.296 251.294ZM196.269 164.982V236.724C213.148 233.468 225.934 218.622 225.934 200.853C225.934 183.084 213.148 168.238 196.269 164.982Z" fill="black"/>
<path d="M261.754 148.858C261.754 141.418 266.094 134.99 272.387 131.952C269.911 130.756 267.131 130.085 264.194 130.085C253.797 130.085 245.368 138.49 245.368 148.858C245.368 159.227 253.797 167.632 264.194 167.632C267.131 167.632 269.911 166.961 272.387 165.765C266.094 162.726 261.754 156.298 261.754 148.858Z" fill="white"/>
<path d="M137.138 260.343C137.138 252.903 141.477 246.475 147.771 243.436C145.294 242.24 142.514 241.569 139.578 241.569C129.181 241.569 120.752 249.974 120.752 260.343C120.752 270.711 129.181 279.116 139.578 279.116C142.515 279.116 145.294 278.445 147.771 277.249C141.477 274.211 137.138 267.782 137.138 260.343Z" fill="white"/>
<path d="M283.02 148.858C283.02 141.418 278.68 134.99 272.386 131.952C266.093 134.99 261.753 141.418 261.753 148.858C261.753 156.298 266.093 162.726 272.386 165.765C278.68 162.726 283.02 156.298 283.02 148.858Z" fill="#D04E42"/>
<path d="M158.403 260.342C158.403 252.902 154.063 246.474 147.77 243.436C141.477 246.474 137.137 252.902 137.137 260.342C137.137 267.782 141.477 274.21 147.77 277.249C154.063 274.21 158.403 267.782 158.403 260.342Z" fill="#FFD15C"/>
<path d="M264.192 174.585C249.967 174.585 238.394 163.044 238.394 148.858C238.394 134.672 249.967 123.132 264.192 123.132C278.418 123.132 289.991 134.672 289.991 148.858C289.991 163.044 278.419 174.585 264.192 174.585ZM264.192 137.038C257.656 137.038 252.339 142.34 252.339 148.858C252.339 155.376 257.656 160.678 264.192 160.678C270.729 160.678 276.046 155.376 276.046 148.858C276.046 142.34 270.729 137.038 264.192 137.038Z" fill="black"/>
<path d="M139.577 286.069C125.352 286.069 113.778 274.528 113.778 260.342C113.778 246.157 125.352 234.616 139.577 234.616C153.803 234.616 165.376 246.157 165.376 260.342C165.376 274.528 153.803 286.069 139.577 286.069ZM139.577 248.522C133.041 248.522 127.724 253.824 127.724 260.342C127.724 266.86 133.041 272.163 139.577 272.163C146.113 272.163 151.431 266.86 151.431 260.342C151.431 253.824 146.113 248.522 139.577 248.522Z" fill="black"/>
</svg>
