<svg width="30" height="30" viewBox="0 0 100 100" fill="none" xmlns="http://www.w3.org/2000/svg">
<g clip-path="url(#clip0)">
<path d="M98.6076 72.5919L96.9946 70.8385V45.7105C96.9946 44.6319 96.12 43.7575 95.0416 43.7575H94.1186C94.0207 41.7905 93.6164 39.7589 92.378 38.057C90.2987 35.1999 86.7272 34.2683 83.2735 33.3673C80.9817 32.7693 78.8169 32.2048 77.3753 31.1554C75.9628 30.1273 74.7731 28.2605 73.5141 26.2841C71.5825 23.2525 69.5852 20.1177 66.177 19.0111C62.9099 17.9502 59.5228 19.2705 56.2474 20.5468C54.0886 21.388 51.8566 22.2578 49.9796 22.2578C48.1308 22.2578 45.9177 21.4015 43.7775 20.5738C40.4831 19.2996 37.0767 17.982 33.7882 19.0687C30.4126 20.1849 28.4367 23.314 26.5259 26.3402C25.2689 28.3312 24.0812 30.212 22.6613 31.2497C21.225 32.2995 19.058 32.8618 16.7638 33.4574C13.3178 34.3521 9.7539 35.2769 7.67148 38.1195C6.43593 39.806 6.02343 41.814 5.91504 43.7575H4.96191C3.8832 43.7575 3.00899 44.6319 3.00899 45.7105V70.8385L1.3959 72.5919C-0.0328058 74.1448 -0.393547 76.31 0.454303 78.2426C0.467584 78.2729 0.481061 78.3028 0.494732 78.3327C0.501568 78.3475 0.5086 78.3623 0.515435 78.3774C1.25586 79.9491 2.66328 81.0112 4.33086 81.2979C4.40957 81.3114 94.753 81.3756 94.753 81.3756C96.8633 81.3756 98.701 80.1752 99.549 78.2426C100.397 76.3104 100.037 74.145 98.6076 72.5919ZM93.0887 47.6634V66.593L88.8325 61.9667C89.4817 60.1366 89.8102 58.2184 89.8102 56.2477C89.8102 53.122 88.9688 50.189 87.5006 47.6634H93.0887ZM57.6653 24.1861C60.4241 23.1113 63.0292 22.0957 64.9708 22.7261C67.0446 23.3996 68.587 25.8203 70.22 28.383C71.619 30.5792 73.0661 32.8501 75.0768 34.3134C77.1161 35.7974 79.7452 36.4833 82.2878 37.1466C85.2059 37.9079 87.9623 38.6269 89.2202 40.3552C89.8735 41.253 90.1262 42.4831 90.2071 43.7575H84.394C81.3274 40.8788 77.204 39.1132 72.676 39.1132C71.1964 39.1132 69.7366 39.3009 68.3212 39.672L54.9913 25.1833C55.8915 24.8773 56.7839 24.5296 57.6653 24.1861ZM85.9042 56.2477C85.9042 57.0327 85.8368 57.8065 85.7032 58.5655L71.4516 43.0749C71.8569 43.0378 72.2653 43.0193 72.6757 43.0193C79.9698 43.0191 85.9042 48.9534 85.9042 56.2477ZM10.8224 40.4277C12.0824 38.7079 14.833 37.9939 17.7453 37.238C20.2931 36.5765 22.9281 35.8929 24.9662 34.4031C26.9869 32.9265 28.4316 30.6382 29.8289 28.4253C31.4431 25.8685 32.9681 23.4537 35.0146 22.7771C36.974 22.1293 39.5943 23.1431 42.3687 24.2164C43.2378 24.5525 44.1173 24.8927 45.0044 25.1927L32.0691 39.2527C31.3437 39.1601 30.6099 39.1132 29.8767 39.1132C25.3486 39.1132 21.2254 40.8786 18.1586 43.7575H9.8287C9.91796 42.5114 10.1762 41.3099 10.8224 40.4277ZM28.542 43.0859L16.6494 56.0122C16.7677 49.2745 21.9482 43.7491 28.542 43.0859ZM6.91503 47.6634H15.0512C13.5832 50.189 12.7416 53.122 12.7416 56.2477C12.7416 57.4626 12.8691 58.6692 13.1211 59.8473L6.91503 66.593V47.6634ZM95.9727 76.6733C95.8674 76.9129 95.5381 77.47 94.7534 77.47H5.25039C4.46523 77.47 4.13613 76.9127 4.03105 76.6733C4.02285 76.6545 4.01406 76.6334 4.00527 76.6104C4.00176 76.6012 3.99824 76.5915 3.99453 76.5817C3.99277 76.5768 3.99102 76.5717 3.98926 76.5667C3.98574 76.5563 3.98223 76.5457 3.97871 76.535C3.97695 76.5295 3.97519 76.5241 3.97344 76.5184C3.88262 76.2221 3.83008 75.7151 4.27031 75.2368L49.0216 26.5947C49.1452 26.4601 49.2784 26.3667 49.4085 26.3023C49.6404 26.1874 49.8618 26.1644 50.0017 26.1644C50.2198 26.1644 50.6374 26.2203 50.9818 26.5945L53.7157 29.5662L26.1144 59.5669C25.3841 60.3608 25.4355 61.5962 26.2295 62.3264C27.0232 63.0567 28.2586 63.0055 28.989 62.2114L56.3694 32.4505L95.7332 75.2364C96.2647 75.8143 96.078 76.4338 95.9727 76.6733Z" fill="black"/>
<path d="M23.5906 65.3195L23.5705 65.2994C22.8095 64.5348 21.5732 64.5318 20.8086 65.2928C20.0439 66.0537 20.041 67.29 20.8019 68.0547L20.8221 68.0748C21.2037 68.4584 21.7051 68.6502 22.2062 68.6502C22.7045 68.6502 23.2029 68.4607 23.5838 68.0814C24.3486 67.3205 24.3515 66.084 23.5906 65.3195Z" fill="black"/>
<path d="M61.4426 57.7968L60.8313 57.1854C60.0688 56.4228 58.8321 56.4228 58.0694 57.1853C57.3067 57.9479 57.3065 59.1845 58.0692 59.9472L58.6806 60.5585C59.0618 60.9399 59.5616 61.1307 60.0614 61.1307C60.5612 61.1307 61.0608 60.9401 61.4422 60.5587C62.2051 59.796 62.2053 58.5595 61.4426 57.7968Z" fill="black"/>
<path d="M74.6419 59.0091L74.0304 58.3976C73.2673 57.6349 72.0312 57.6349 71.2683 58.3976C70.5056 59.1605 70.5056 60.397 71.2683 61.1597L71.8798 61.7712C72.2613 62.1527 72.7609 62.3433 73.2607 62.3433C73.7607 62.3433 74.2605 62.1527 74.6417 61.7712C75.4046 61.0083 75.4046 59.7716 74.6419 59.0091Z" fill="black"/>
<path d="M69.6255 69.5306L69.0142 68.9191C68.2513 68.1562 67.0152 68.156 66.2521 68.9185C65.4894 69.6812 65.4892 70.9175 66.2517 71.6804L66.863 72.292C67.2445 72.6734 67.7443 72.8642 68.2441 72.8642C68.7437 72.8642 69.2435 72.6734 69.6249 72.2925C70.3876 71.5299 70.3878 70.2935 69.6255 69.5306Z" fill="black"/>
</g>
<defs>
<clipPath id="clip0">
<rect width="100" height="100" fill="white"/>
</clipPath>
</defs>
</svg>
