<svg width="356" height="356" viewBox="0 0 356 356" fill="none" xmlns="http://www.w3.org/2000/svg">
<path d="M328.154 162.73C328.31 156.994 328.071 151.478 326.625 146.617C322.852 145.166 319.356 143.447 316.35 141.26C311.883 138.009 308.07 133.377 304.484 128.238C293.078 124.666 279.946 122.785 271.358 116.536C264.192 111.321 258.953 102.037 253.332 93.4024C238.903 97.3441 223.362 106.446 209.147 106.446C188.351 106.446 164.477 86.7483 145.518 93.0165C126.074 99.4454 118.595 129.707 102.273 141.636C87.8714 152.162 62.1706 151.849 47.9709 162.731L328.154 162.73Z" fill="#1BCF92"/>
<path d="M94.8995 263.135L220.409 126.714L186.604 89.9699C181.972 84.9352 174.026 84.9352 169.393 89.9699L10.0792 263.135C3.18379 270.63 8.50013 282.745 18.6844 282.745H103.505C93.3211 282.745 88.0048 270.631 94.8995 263.135Z" fill="white"/>
<path d="M345.92 263.135L220.41 126.713L94.9002 263.135C88.0048 270.63 93.3212 282.745 103.505 282.745H337.315C347.499 282.745 352.816 270.63 345.92 263.135Z" fill="#F2995E"/>
<path d="M308.165 222.096L338.342 254.898V162.73H297.626" fill="#FFD15C"/>
<path d="M54.3504 215.016L67.4452 162.73H38.1685V232.605L54.3504 215.016Z" fill="#FFD15C"/>
<path d="M116.746 147.195C113.382 146.54 109.908 146.196 106.352 146.196C76.5029 146.196 52.3054 170.394 52.3054 200.243C52.3054 205.364 53.0181 210.32 54.3496 215.016L116.746 147.195Z" fill="#FF5F5F"/>
<path d="M308.165 222.096C311.122 215.414 312.766 208.02 312.766 200.243C312.766 170.394 288.568 146.196 258.719 146.196C252.532 146.196 246.589 147.236 241.052 149.15L308.165 222.096Z" fill="#D04E42"/>
<path d="M37.3771 263.135L191.649 95.451L186.605 89.9692C181.973 84.9344 174.027 84.9344 169.394 89.9692L10.0792 263.135C3.18379 270.63 8.50013 282.745 18.6844 282.745H45.9816C35.798 282.745 30.4817 270.631 37.3771 263.135Z" fill="white"/>
<path d="M55.4176 263.135L79.0554 237.442L200.669 105.255L191.649 95.4502L37.377 263.135C30.4816 270.63 35.798 282.745 45.9822 282.745H64.0228C53.8378 282.745 48.5215 270.63 55.4176 263.135Z" fill="#FF8859"/>
<path d="M351.037 258.428L345.294 252.186V162.73C345.294 158.89 342.181 155.777 338.342 155.777H335.056C334.708 148.775 333.268 141.542 328.859 135.483C321.457 125.312 308.743 121.996 296.447 118.788C288.289 116.659 280.582 114.65 275.45 110.914C270.421 107.254 266.186 100.608 261.704 93.5721C254.827 82.7795 247.717 71.6197 235.584 67.6801C223.952 63.9032 211.895 68.6035 200.234 73.1473C192.549 76.142 184.603 79.2383 177.921 79.2383C171.339 79.2383 163.461 76.19 155.842 73.2433C144.114 68.7071 131.987 64.0165 120.28 67.8852C108.263 71.8582 101.228 82.9985 94.4261 93.7717C89.9511 100.86 85.7229 107.556 80.668 111.25C75.5547 114.987 67.8402 116.989 59.6731 119.109C47.405 122.294 34.7176 125.586 27.3042 135.706C22.9057 141.71 21.4372 148.858 21.0513 155.777H17.6582C13.818 155.777 10.7058 158.89 10.7058 162.73V252.186L4.96319 258.428C-0.123009 263.956 -1.40725 271.664 1.6111 278.544C1.65838 278.652 1.70635 278.758 1.75503 278.865C1.77936 278.918 1.80439 278.971 1.82873 279.024C4.46465 284.619 9.47507 288.4 15.4116 289.421C15.6918 289.469 337.314 289.698 337.314 289.698C344.827 289.698 351.369 285.424 354.388 278.544C357.409 271.666 356.124 263.957 351.037 258.428ZM331.39 169.682V237.072L316.237 220.602C318.549 214.087 319.718 207.258 319.718 200.243C319.718 189.115 316.723 178.673 311.496 169.682H331.39ZM305.813 200.243C305.813 203.037 305.573 205.792 305.097 208.494L254.362 153.347C255.804 153.215 257.258 153.149 258.719 153.149C284.686 153.148 305.813 174.275 305.813 200.243ZM205.282 86.1031C215.104 82.2761 224.378 78.6612 231.29 80.9056C238.673 83.3031 244.163 91.9207 249.977 101.044C254.957 108.863 260.109 116.947 267.267 122.156C274.527 127.439 283.887 129.881 292.938 132.243C303.327 134.953 313.14 137.512 317.618 143.665C319.943 146.861 320.843 151.241 321.131 155.777H300.436C289.519 145.529 274.84 139.244 258.72 139.244C253.453 139.244 248.256 139.912 243.217 141.233L205.834 100.599C205.818 100.582 205.803 100.565 205.787 100.547L195.763 89.6526C198.968 88.5638 202.144 87.3261 205.282 86.1031ZM38.5217 143.923C43.0071 137.801 52.7992 135.259 63.167 132.568C72.2373 130.213 81.6178 127.779 88.8733 122.475C96.067 117.219 101.21 109.073 106.185 101.195C111.931 92.0925 117.36 83.4957 124.646 81.0871C131.621 78.7808 140.949 82.3901 150.826 86.2108C153.92 87.4075 157.051 88.6187 160.21 89.6867L114.16 139.74C111.577 139.41 108.965 139.244 106.355 139.244C90.2348 139.244 75.556 145.529 64.6383 155.777H34.9839C35.3017 151.341 36.2209 147.064 38.5217 143.923ZM24.6113 169.682H53.5759C48.3499 178.673 45.3538 189.115 45.3538 200.243C45.3538 204.567 45.8079 208.863 46.7048 213.057L24.6113 237.072V169.682ZM59.2656 199.404C59.687 175.418 78.1294 155.748 101.603 153.386L59.2656 199.404ZM341.656 272.958C341.282 273.811 340.109 275.794 337.316 275.794H18.6852C15.89 275.794 14.7184 273.81 14.3443 272.958C14.3151 272.891 14.2838 272.816 14.2525 272.734C14.24 272.701 14.2275 272.666 14.2143 272.631C14.2081 272.614 14.2018 272.596 14.1955 272.578C14.183 272.541 14.1705 272.503 14.158 272.465C14.1517 272.446 14.1455 272.426 14.1392 272.406C13.8159 271.351 13.6289 269.546 15.1961 267.843L174.511 94.6777C174.951 94.1986 175.425 93.8662 175.888 93.6368C176.713 93.2279 177.502 93.1459 178 93.1459C178.776 93.1459 180.263 93.3447 181.489 94.677L191.222 105.256L92.9611 212.059C90.3613 214.885 90.5442 219.283 93.3706 221.883C96.1964 224.483 100.594 224.3 103.195 221.473L200.669 115.524L340.804 267.842C342.696 269.9 342.031 272.105 341.656 272.958Z" fill="black"/>
<path d="M79.0554 244.394C77.2705 244.394 75.4857 243.711 74.1277 242.346L74.0561 242.274C71.3472 239.552 71.3576 235.151 74.0797 232.442C76.8019 229.733 81.2032 229.743 83.9121 232.465L83.9837 232.537C86.6927 235.259 86.6822 239.661 83.9601 242.369C82.6029 243.72 80.8284 244.394 79.0554 244.394Z" fill="black"/>
<path d="M213.821 217.625C212.041 217.625 210.261 216.945 208.905 215.587L206.728 213.411C204.013 210.696 204.014 206.294 206.729 203.579C209.444 200.864 213.847 200.864 216.561 203.579L218.738 205.756C221.453 208.471 221.452 212.873 218.737 215.588C217.379 216.946 215.6 217.625 213.821 217.625Z" fill="black"/>
<path d="M260.807 221.941C259.027 221.941 257.248 221.263 255.891 219.905L253.714 217.728C250.999 215.012 250.999 210.61 253.714 207.895C256.43 205.179 260.831 205.179 263.547 207.895L265.724 210.072C268.439 212.787 268.439 217.189 265.724 219.905C264.366 221.263 262.587 221.941 260.807 221.941Z" fill="black"/>
<path d="M242.948 259.396C241.168 259.396 239.389 258.717 238.031 257.359L235.855 255.182C233.141 252.466 233.141 248.065 235.856 245.35C238.573 242.635 242.974 242.636 245.69 245.352L247.866 247.529C250.58 250.245 250.58 254.646 247.864 257.361C246.506 258.717 244.726 259.396 242.948 259.396Z" fill="black"/>
</svg>
