<svg width="356" height="356" viewBox="0 0 356 356" fill="none" xmlns="http://www.w3.org/2000/svg">
<path d="M351.037 258.428L345.294 252.186V162.73C345.294 158.89 342.181 155.778 338.342 155.778H335.056C334.708 148.775 333.268 141.542 328.859 135.483C321.457 125.312 308.743 121.996 296.447 118.788C288.289 116.659 280.582 114.65 275.45 110.914C270.421 107.254 266.186 100.608 261.704 93.5722C254.827 82.7796 247.717 71.6199 235.584 67.6802C223.953 63.9033 211.895 68.6036 200.234 73.1475C192.549 76.1422 184.603 79.2384 177.921 79.2384C171.339 79.2384 163.461 76.1901 155.842 73.2434C144.114 68.7072 131.987 64.0166 120.28 67.8854C108.263 71.8591 101.228 82.9986 94.4261 93.7718C89.9511 100.86 85.7229 107.556 80.668 111.25C75.5547 114.987 67.8402 116.989 59.6731 119.109C47.405 122.294 34.7176 125.586 27.3042 135.706C22.9057 141.71 21.4372 148.859 21.0513 155.778H17.6582C13.818 155.778 10.7058 158.89 10.7058 162.73V252.186L4.96319 258.428C-0.123009 263.956 -1.40725 271.664 1.6111 278.544C1.65838 278.652 1.70635 278.759 1.75503 278.865C1.77936 278.918 1.80439 278.971 1.82873 279.024C4.46465 284.619 9.47507 288.4 15.4116 289.421C15.6918 289.469 337.314 289.698 337.314 289.698C344.827 289.698 351.369 285.425 354.388 278.544C357.409 271.666 356.124 263.957 351.037 258.428ZM331.39 169.682V237.072L316.237 220.602C318.549 214.087 319.718 207.258 319.718 200.243C319.718 189.115 316.723 178.673 311.496 169.682H331.39ZM205.282 86.1032C215.104 82.2769 224.378 78.6613 231.29 80.9057C238.673 83.3032 244.163 91.9209 249.977 101.044C254.957 108.863 260.109 116.947 267.267 122.156C274.527 127.439 283.887 129.881 292.938 132.243C303.327 134.953 313.14 137.512 317.618 143.665C319.943 146.862 320.843 151.241 321.131 155.778H300.436C289.519 145.529 274.84 139.244 258.72 139.244C253.453 139.244 248.256 139.912 243.217 141.233L195.763 89.6535C198.968 88.5639 202.144 87.3263 205.282 86.1032ZM305.813 200.243C305.813 203.037 305.573 205.792 305.097 208.494L254.362 153.347C255.804 153.215 257.258 153.149 258.719 153.149C284.686 153.149 305.813 174.275 305.813 200.243ZM38.5217 143.923C43.0071 137.801 52.7992 135.259 63.167 132.568C72.2373 130.213 81.6178 127.779 88.8733 122.476C96.067 117.219 101.21 109.073 106.185 101.195C111.931 92.0926 117.36 83.4958 124.646 81.0872C131.621 78.7809 140.949 82.3902 150.826 86.211C153.92 87.4076 157.051 88.6188 160.21 89.6868L114.16 139.74C111.577 139.411 108.965 139.244 106.355 139.244C90.2348 139.244 75.556 145.529 64.6383 155.778H34.9839C35.3017 151.341 36.2209 147.064 38.5217 143.923ZM101.603 153.386L59.2656 199.404C59.687 175.418 78.1294 155.748 101.603 153.386ZM24.6113 169.682H53.5759C48.3499 178.673 45.3538 189.115 45.3538 200.243C45.3538 204.568 45.8079 208.863 46.7048 213.057L24.6113 237.072V169.682ZM341.656 272.958C341.282 273.811 340.109 275.794 337.316 275.794H18.6852C15.89 275.794 14.7184 273.81 14.3443 272.958C14.3151 272.891 14.2838 272.816 14.2525 272.734C14.24 272.701 14.2275 272.666 14.2143 272.632C14.2081 272.614 14.2018 272.596 14.1955 272.578C14.183 272.541 14.1705 272.504 14.158 272.465C14.1517 272.446 14.1455 272.426 14.1392 272.406C13.8159 271.351 13.6289 269.546 15.1961 267.844L174.511 94.6778C174.951 94.1987 175.425 93.8664 175.888 93.6369C176.713 93.2281 177.502 93.146 178 93.146C178.776 93.146 180.263 93.3449 181.489 94.6771L191.222 105.256L92.9611 212.059C90.3613 214.885 90.5442 219.283 93.3706 221.883C96.1964 224.483 100.594 224.3 103.195 221.473L200.669 115.525L340.804 267.842C342.696 269.9 342.031 272.105 341.656 272.958Z" fill="black"/>
<path d="M83.9833 232.538L83.9117 232.466C81.2027 229.744 76.8014 229.734 74.0793 232.443C71.3571 235.152 71.3467 239.553 74.0556 242.275L74.1272 242.347C75.4859 243.712 77.2707 244.395 79.0549 244.395C80.8286 244.395 82.6031 243.721 83.9589 242.37C86.6818 239.661 86.6922 235.259 83.9833 232.538Z" fill="black"/>
<path d="M218.737 205.756L216.561 203.579C213.847 200.864 209.444 200.864 206.729 203.579C204.013 206.294 204.013 210.696 206.728 213.411L208.904 215.587C210.262 216.945 212.041 217.625 213.82 217.625C215.599 217.625 217.378 216.946 218.736 215.588C221.452 212.873 221.453 208.471 218.737 205.756Z" fill="black"/>
<path d="M265.724 210.072L263.546 207.895C260.83 205.18 256.429 205.18 253.713 207.895C250.998 210.611 250.998 215.013 253.713 217.728L255.89 219.905C257.248 221.263 259.027 221.942 260.806 221.942C262.586 221.942 264.366 221.263 265.723 219.905C268.439 217.19 268.439 212.787 265.724 210.072Z" fill="black"/>
<path d="M247.866 247.529L245.689 245.352C242.974 242.636 238.573 242.636 235.856 245.35C233.141 248.065 233.141 252.467 235.855 255.183L238.031 257.36C239.389 258.718 241.169 259.397 242.948 259.397C244.726 259.397 246.506 258.718 247.864 257.362C250.579 254.647 250.58 250.245 247.866 247.529Z" fill="black"/>
</svg>
