<svg width="16" height="16" viewBox="0 0 16 16" fill="none" xmlns="http://www.w3.org/2000/svg">
<path fill-rule="evenodd" clip-rule="evenodd" d="M10.8636 6.40362L7.81825 10.4036C7.69292 10.5683 7.49892 10.6656 7.29225 10.667H7.28759C7.08292 10.667 6.88959 10.5723 6.76292 10.411L5.14159 8.33962C4.91492 8.05028 4.96559 7.63095 5.25559 7.40428C5.54492 7.17695 5.96492 7.22762 6.19159 7.51828L7.28025 8.90895L9.80292 5.59628C10.0256 5.30362 10.4436 5.24628 10.7376 5.46962C11.0303 5.69295 11.0869 6.11095 10.8636 6.40362ZM8.00025 1.33362C4.31825 1.33362 1.33359 4.31828 1.33359 8.00028C1.33359 11.6816 4.31825 14.667 8.00025 14.667C11.6823 14.667 14.6669 11.6816 14.6669 8.00028C14.6669 4.31828 11.6823 1.33362 8.00025 1.33362Z" fill="#EA7C69"/>
<mask id="mask0" mask-type="alpha" maskUnits="userSpaceOnUse" x="1" y="1" width="14" height="14">
<path fill-rule="evenodd" clip-rule="evenodd" d="M10.8636 6.40362L7.81825 10.4036C7.69292 10.5683 7.49892 10.6656 7.29225 10.667H7.28759C7.08292 10.667 6.88959 10.5723 6.76292 10.411L5.14159 8.33962C4.91492 8.05028 4.96559 7.63095 5.25559 7.40428C5.54492 7.17695 5.96492 7.22762 6.19159 7.51828L7.28025 8.90895L9.80292 5.59628C10.0256 5.30362 10.4436 5.24628 10.7376 5.46962C11.0303 5.69295 11.0869 6.11095 10.8636 6.40362ZM8.00025 1.33362C4.31825 1.33362 1.33359 4.31828 1.33359 8.00028C1.33359 11.6816 4.31825 14.667 8.00025 14.667C11.6823 14.667 14.6669 11.6816 14.6669 8.00028C14.6669 4.31828 11.6823 1.33362 8.00025 1.33362Z" fill="white"/>
</mask>
<g mask="url(#mask0)">
<rect width="16" height="16" fill="#EA7C69"/>
</g>
</svg>
